<svg width="377" height="132" viewBox="0 0 377 132" fill="none" xmlns="http://www.w3.org/2000/svg">
<path d="M143.974 87.304C145.094 87.304 146.326 87.3973 147.67 87.584C149.014 87.7333 150.283 87.9573 151.478 88.256C151.179 90.496 150.88 92.736 150.582 94.976C150.32 97.1787 150.059 99.288 149.798 101.304C149.574 103.283 149.387 105.075 149.238 106.68C149.088 108.248 149.014 109.48 149.014 110.376C149.014 111.123 149.07 111.869 149.182 112.616C149.294 113.363 149.76 113.736 150.582 113.736C151.216 113.736 151.907 113.325 152.654 112.504C153.438 111.683 154.11 110.283 154.67 108.304L156.238 108.64C156.126 109.312 155.883 110.096 155.51 110.992C155.174 111.851 154.707 112.709 154.11 113.568C153.512 114.427 152.784 115.136 151.926 115.696C151.067 116.256 150.078 116.536 148.958 116.536C147.464 116.536 146.4 116.069 145.766 115.136C145.131 114.203 144.814 112.989 144.814 111.496C144.814 110.413 144.907 109.237 145.094 107.968C145.318 106.699 145.56 105.373 145.822 103.992H145.654C144.758 106.755 143.824 108.976 142.854 110.656C141.92 112.299 140.968 113.549 139.998 114.408C139.064 115.267 138.15 115.827 137.254 116.088C136.358 116.387 135.518 116.536 134.734 116.536C132.718 116.536 131.019 115.789 129.638 114.296C128.294 112.803 127.622 110.301 127.622 106.792C127.622 104.179 127.958 101.696 128.63 99.344C129.302 96.992 130.31 94.92 131.654 93.128C133.035 91.2987 134.752 89.88 136.806 88.872C138.859 87.8267 141.248 87.304 143.974 87.304ZM142.238 89.32C140.558 89.32 139.083 89.7867 137.814 90.72C136.582 91.6533 135.555 92.9227 134.734 94.528C133.912 96.096 133.296 97.8693 132.886 99.848C132.512 101.789 132.326 103.787 132.326 105.84C132.326 108.229 132.587 110.208 133.11 111.776C133.632 113.307 134.584 114.072 135.966 114.072C136.974 114.072 137.982 113.568 138.99 112.56C140.035 111.552 141.006 110.208 141.902 108.528C142.798 106.811 143.6 104.907 144.31 102.816C145.019 100.688 145.579 98.5227 145.99 96.32C146.4 94.1173 146.606 92.008 146.606 89.992C146.046 89.768 145.392 89.6 144.646 89.488C143.899 89.376 143.096 89.32 142.238 89.32ZM164.293 87.304C165.787 87.304 166.925 87.7893 167.709 88.76C168.531 89.6933 168.941 91.112 168.941 93.016C168.941 94.5467 168.904 96.376 168.829 98.504C168.755 100.632 168.605 102.853 168.381 105.168C168.157 107.445 167.877 109.797 167.541 112.224C167.205 114.651 166.739 116.984 166.141 119.224C165.581 121.464 164.816 123.48 163.845 125.272C162.912 127.064 161.699 128.483 160.205 129.528C158.712 130.573 156.864 131.096 154.661 131.096C153.728 131.096 152.795 130.872 151.861 130.424C150.891 129.976 150.405 129.192 150.405 128.072C150.405 127.624 150.499 127.195 150.685 126.784C150.835 126.411 151.096 126.093 151.469 125.832C151.843 125.571 152.291 125.44 152.813 125.44C153.56 125.44 154.176 125.701 154.661 126.224C155.109 126.784 155.277 127.549 155.165 128.52C155.464 128.707 155.837 128.8 156.285 128.8C157.368 128.8 158.301 128.259 159.085 127.176C159.869 126.131 160.541 124.749 161.101 123.032C161.661 121.352 162.109 119.523 162.445 117.544C162.819 115.603 163.117 113.736 163.341 111.944C163.565 110.115 163.715 108.547 163.789 107.24C163.901 105.933 163.976 105.093 164.013 104.72C164.2 102.629 164.312 100.501 164.349 98.336C164.424 96.1333 164.424 94.2107 164.349 92.568C164.312 92.0453 164.163 91.5227 163.901 91C163.677 90.44 163.248 90.1787 162.613 90.216C162.053 90.2533 161.419 90.7013 160.709 91.56C160 92.3813 159.384 93.7813 158.861 95.76L157.293 95.424C157.405 94.752 157.611 93.968 157.909 93.072C158.208 92.1387 158.637 91.2427 159.197 90.384C159.757 89.488 160.448 88.76 161.269 88.2C162.128 87.6027 163.136 87.304 164.293 87.304ZM166.701 75.208C167.56 75.208 168.269 75.5067 168.829 76.104C169.389 76.664 169.669 77.4293 169.669 78.4C169.669 79.3333 169.371 80.0987 168.773 80.696C168.176 81.256 167.467 81.536 166.645 81.536C165.824 81.536 165.115 81.256 164.517 80.696C163.957 80.0987 163.677 79.3333 163.677 78.4C163.677 77.4293 163.976 76.664 164.573 76.104C165.171 75.5067 165.88 75.208 166.701 75.208ZM190.732 87.304C191.852 87.304 193.084 87.3973 194.428 87.584C195.772 87.7333 197.041 87.9573 198.236 88.256C197.937 90.496 197.638 92.736 197.34 94.976C197.078 97.1787 196.817 99.288 196.556 101.304C196.332 103.283 196.145 105.075 195.996 106.68C195.846 108.248 195.772 109.48 195.772 110.376C195.772 111.123 195.828 111.869 195.94 112.616C196.052 113.363 196.518 113.736 197.34 113.736C197.974 113.736 198.665 113.325 199.412 112.504C200.196 111.683 200.868 110.283 201.428 108.304L202.996 108.64C202.884 109.312 202.641 110.096 202.268 110.992C201.932 111.851 201.465 112.709 200.868 113.568C200.27 114.427 199.542 115.136 198.684 115.696C197.825 116.256 196.836 116.536 195.716 116.536C194.222 116.536 193.158 116.069 192.524 115.136C191.889 114.203 191.572 112.989 191.572 111.496C191.572 110.413 191.665 109.237 191.852 107.968C192.076 106.699 192.318 105.373 192.58 103.992H192.412C191.516 106.755 190.582 108.976 189.612 110.656C188.678 112.299 187.726 113.549 186.756 114.408C185.822 115.267 184.908 115.827 184.012 116.088C183.116 116.387 182.276 116.536 181.492 116.536C179.476 116.536 177.777 115.789 176.396 114.296C175.052 112.803 174.38 110.301 174.38 106.792C174.38 104.179 174.716 101.696 175.388 99.344C176.06 96.992 177.068 94.92 178.412 93.128C179.793 91.2987 181.51 89.88 183.564 88.872C185.617 87.8267 188.006 87.304 190.732 87.304ZM188.996 89.32C187.316 89.32 185.841 89.7867 184.572 90.72C183.34 91.6533 182.313 92.9227 181.492 94.528C180.67 96.096 180.054 97.8693 179.644 99.848C179.27 101.789 179.084 103.787 179.084 105.84C179.084 108.229 179.345 110.208 179.868 111.776C180.39 113.307 181.342 114.072 182.724 114.072C183.732 114.072 184.74 113.568 185.748 112.56C186.793 111.552 187.764 110.208 188.66 108.528C189.556 106.811 190.358 104.907 191.068 102.816C191.777 100.688 192.337 98.5227 192.748 96.32C193.158 94.1173 193.364 92.008 193.364 89.992C192.804 89.768 192.15 89.6 191.404 89.488C190.657 89.376 189.854 89.32 188.996 89.32ZM213.907 73.64C213.758 74.6853 213.59 75.7867 213.403 76.944C213.254 78.064 213.123 79.1653 213.011 80.248C212.899 81.2933 212.787 82.2453 212.675 83.104C212.526 84.7467 212.358 86.4267 212.171 88.144C211.985 89.8613 211.798 91.6533 211.611 93.52C211.425 95.3493 211.238 97.2533 211.051 99.232H211.219C211.966 96.544 212.787 94.3973 213.683 92.792C214.579 91.1867 215.513 89.992 216.483 89.208C217.454 88.424 218.406 87.92 219.339 87.696C220.31 87.4347 221.206 87.304 222.027 87.304C223.745 87.304 225.107 87.7893 226.115 88.76C227.161 89.7307 227.907 91 228.355 92.568C228.803 94.0987 229.027 95.7787 229.027 97.608C229.027 100.184 228.729 102.611 228.131 104.888C227.571 107.165 226.675 109.181 225.443 110.936C224.211 112.691 222.606 114.072 220.627 115.08C218.649 116.051 216.278 116.536 213.515 116.536C212.918 116.536 212.19 116.499 211.331 116.424C210.473 116.349 209.595 116.219 208.699 116.032C207.803 115.883 206.963 115.659 206.179 115.36C206.441 111.701 206.665 108.416 206.851 105.504C207.038 102.592 207.206 99.8107 207.355 97.16C207.542 94.5093 207.729 91.8213 207.915 89.096C208.139 86.3707 208.382 83.384 208.643 80.136C208.718 79.1653 208.774 78.5493 208.811 78.288C208.849 78.0267 208.905 77.6533 208.979 77.168C208.307 77.2053 207.635 77.2427 206.963 77.28C206.291 77.3173 205.619 77.3547 204.947 77.392L205.171 75.152C206.814 75.152 208.102 75.0773 209.035 74.928C209.969 74.7787 210.659 74.592 211.107 74.368C211.593 74.144 211.985 73.9013 212.283 73.64H213.907ZM220.403 89.936C219.358 89.9733 218.331 90.5147 217.323 91.56C216.353 92.568 215.457 93.912 214.635 95.592C213.814 97.2347 213.086 99.0827 212.451 101.136C211.817 103.152 211.313 105.224 210.939 107.352C210.566 109.443 210.361 111.421 210.323 113.288C210.771 113.736 211.387 114.072 212.171 114.296C212.993 114.483 213.758 114.576 214.467 114.576C216.11 114.539 217.491 114.184 218.611 113.512C219.769 112.803 220.721 111.869 221.467 110.712C222.214 109.517 222.793 108.211 223.203 106.792C223.614 105.336 223.894 103.861 224.043 102.368C224.193 100.875 224.249 99.4373 224.211 98.056C224.174 95.5173 223.857 93.52 223.259 92.064C222.662 90.5707 221.71 89.8613 220.403 89.936ZM272.788 116.536C271.033 116.536 269.838 116.069 269.204 115.136C268.569 114.203 268.252 112.877 268.252 111.16C268.252 110.115 268.326 108.883 268.476 107.464C268.662 106.045 268.868 104.533 269.092 102.928C269.353 101.323 269.558 99.6987 269.708 98.056C269.894 96.4133 269.988 94.8453 269.988 93.352C269.988 92.904 269.913 92.4187 269.764 91.896C269.652 91.3733 269.409 90.9253 269.036 90.552C268.662 90.1413 268.102 89.936 267.356 89.936C266.31 89.936 265.265 90.4213 264.22 91.392C263.174 92.3627 262.185 93.6693 261.252 95.312C260.318 96.9547 259.478 98.784 258.732 100.8C257.985 102.779 257.388 104.832 256.94 106.96C256.529 109.051 256.324 111.048 256.324 112.952C256.324 113.512 256.324 114.035 256.324 114.52C256.361 114.968 256.398 115.435 256.436 115.92H251.732C251.694 115.659 251.676 115.435 251.676 115.248C251.676 115.024 251.676 114.763 251.676 114.464C251.676 113.829 251.713 113.101 251.788 112.28C251.862 111.421 251.974 110.301 252.124 108.92C252.31 107.501 252.534 105.616 252.796 103.264C253.057 101.061 253.244 99.344 253.356 98.112C253.505 96.88 253.617 95.9467 253.692 95.312C253.766 94.64 253.804 94.136 253.804 93.8C253.841 93.4267 253.86 93.0347 253.86 92.624C253.86 91.952 253.766 91.3733 253.58 90.888C253.393 90.3653 252.982 90.104 252.348 90.104C251.75 90.104 251.06 90.5147 250.276 91.336C249.492 92.1573 248.82 93.5573 248.26 95.536L246.692 95.2C246.804 94.528 247.028 93.7627 247.364 92.904C247.737 92.008 248.222 91.1307 248.82 90.272C249.417 89.4133 250.145 88.704 251.004 88.144C251.862 87.584 252.852 87.304 253.972 87.304C255.241 87.304 256.174 87.6587 256.772 88.368C257.406 89.04 257.798 89.9173 257.948 91C258.134 92.0827 258.19 93.24 258.116 94.472C258.041 95.5173 257.91 96.5253 257.724 97.496C257.574 98.4667 257.425 99.3253 257.276 100.072H257.444C258.713 96.6747 259.964 94.0613 261.196 92.232C262.428 90.3653 263.641 89.0773 264.836 88.368C266.068 87.6587 267.281 87.304 268.476 87.304C269.969 87.304 271.164 87.64 272.06 88.312C272.956 88.984 273.59 89.88 273.964 91C274.374 92.0827 274.58 93.2773 274.58 94.584C274.58 96.6373 274.43 98.7467 274.132 100.912C273.87 103.04 273.59 105.019 273.292 106.848C273.03 108.64 272.9 110.077 272.9 111.16C272.9 111.832 272.974 112.429 273.124 112.952C273.31 113.475 273.74 113.736 274.412 113.736C275.046 113.736 275.737 113.344 276.484 112.56C277.268 111.739 277.94 110.32 278.5 108.304L280.068 108.696C279.956 109.331 279.713 110.096 279.34 110.992C279.004 111.888 278.537 112.765 277.94 113.624C277.342 114.445 276.614 115.136 275.756 115.696C274.897 116.256 273.908 116.536 272.788 116.536ZM296.545 87.304C297.889 87.304 299.158 87.5093 300.353 87.92C301.548 88.3307 302.518 89.0027 303.265 89.936C304.012 90.8693 304.385 92.1387 304.385 93.744C304.385 95.2747 303.862 96.6 302.817 97.72C301.772 98.84 300.409 99.7733 298.729 100.52C297.049 101.229 295.257 101.808 293.353 102.256C291.449 102.704 289.62 103.021 287.865 103.208C287.865 105.523 288.089 107.464 288.537 109.032C289.022 110.6 289.732 111.776 290.665 112.56C291.598 113.344 292.793 113.736 294.249 113.736C295.332 113.736 296.414 113.493 297.497 113.008C298.617 112.523 299.681 111.795 300.689 110.824C301.697 109.816 302.612 108.528 303.433 106.96L305.281 108.024C304.236 109.965 303.116 111.571 301.921 112.84C300.726 114.109 299.42 115.043 298.001 115.64C296.582 116.237 295.014 116.536 293.297 116.536C289.75 116.536 287.137 115.435 285.457 113.232C283.777 110.992 282.937 108.061 282.937 104.44C282.937 102.275 283.217 100.165 283.777 98.112C284.337 96.0587 285.177 94.2293 286.297 92.624C287.417 90.9813 288.836 89.6933 290.553 88.76C292.27 87.7893 294.268 87.304 296.545 87.304ZM295.761 89.208C294.044 89.208 292.625 89.7867 291.505 90.944C290.422 92.1013 289.582 93.5947 288.985 95.424C288.425 97.2533 288.07 99.176 287.921 101.192C289.9 100.931 291.785 100.464 293.577 99.792C295.369 99.12 296.844 98.2613 298.001 97.216C299.158 96.1333 299.737 94.8827 299.737 93.464C299.737 92.2693 299.401 91.2613 298.729 90.44C298.094 89.6187 297.105 89.208 295.761 89.208ZM343.28 87.304C344.96 87.304 346.304 87.8453 347.312 88.928C348.358 89.9733 349.086 91.3733 349.496 93.128C349.944 94.8453 350.075 96.7307 349.888 98.784C349.739 100.8 349.31 102.76 348.6 104.664C348.003 106.344 347.219 107.912 346.248 109.368C345.315 110.787 344.232 112.037 343 113.12C341.768 114.203 340.424 115.043 338.968 115.64C337.55 116.237 336.056 116.536 334.488 116.536C333.518 116.536 332.547 116.312 331.576 115.864C330.643 115.379 329.896 114.52 329.336 113.288C328.814 112.056 328.646 110.32 328.832 108.08C328.272 109.648 327.451 111.085 326.368 112.392C325.323 113.661 324.166 114.669 322.896 115.416C321.627 116.163 320.358 116.536 319.088 116.536C316.923 116.536 315.411 115.827 314.552 114.408C313.694 112.952 313.264 111.235 313.264 109.256C313.264 107.763 313.339 106.232 313.488 104.664C313.638 103.059 313.806 101.509 313.992 100.016C314.179 98.4853 314.347 97.0853 314.496 95.816C314.646 94.5467 314.72 93.52 314.72 92.736C314.72 92.0267 314.627 91.4107 314.44 90.888C314.291 90.3653 313.88 90.104 313.208 90.104C312.611 90.104 311.939 90.5147 311.192 91.336C310.483 92.1573 309.848 93.5573 309.288 95.536L307.72 95.2C307.832 94.528 308.056 93.7627 308.392 92.904C308.728 92.008 309.176 91.1307 309.736 90.272C310.334 89.4133 311.043 88.704 311.864 88.144C312.723 87.584 313.712 87.304 314.832 87.304C315.84 87.304 316.68 87.528 317.352 87.976C318.024 88.3867 318.528 89.0027 318.864 89.824C319.2 90.608 319.368 91.5787 319.368 92.736C319.368 93.968 319.294 95.4053 319.144 97.048C318.995 98.6907 318.808 100.371 318.584 102.088C318.398 103.805 318.23 105.392 318.08 106.848C317.931 108.304 317.856 109.424 317.856 110.208C317.856 110.731 317.912 111.253 318.024 111.776C318.174 112.299 318.416 112.728 318.752 113.064C319.126 113.4 319.63 113.568 320.264 113.568C321.198 113.568 322.131 113.288 323.064 112.728C324.035 112.168 324.931 111.347 325.752 110.264C326.574 109.181 327.302 107.856 327.936 106.288C328.571 104.72 329.075 102.928 329.448 100.912C329.822 98.896 330.008 96.656 330.008 94.192C330.008 93.2213 329.971 92.2133 329.896 91.168C329.859 90.1227 329.766 89.04 329.616 87.92H334.432C334.507 88.2187 334.563 88.648 334.6 89.208C334.638 89.7307 334.656 90.1413 334.656 90.44C334.656 92.3067 334.563 94.0987 334.376 95.816C334.19 97.5333 333.966 99.176 333.704 100.744C333.48 102.312 333.275 103.805 333.088 105.224C332.902 106.643 332.808 107.987 332.808 109.256C332.808 110.339 332.995 111.328 333.368 112.224C333.742 113.12 334.563 113.587 335.832 113.624C336.915 113.624 337.979 113.381 339.024 112.896C340.07 112.373 341.059 111.645 341.992 110.712C342.963 109.779 343.822 108.696 344.568 107.464C345.315 106.195 345.931 104.832 346.416 103.376C346.64 102.629 346.846 101.659 347.032 100.464C347.219 99.232 347.275 97.9813 347.2 96.712C347.163 95.4053 346.939 94.2293 346.528 93.184C346.155 92.1387 345.502 91.4293 344.568 91.056C344.344 91.5413 344.027 91.896 343.616 92.12C343.206 92.344 342.758 92.456 342.272 92.456C341.787 92.456 341.264 92.2693 340.704 91.896C340.182 91.4853 339.92 90.8693 339.92 90.048C339.92 89.6373 340.014 89.2267 340.2 88.816C340.424 88.368 340.779 88.0133 341.264 87.752C341.787 87.4533 342.459 87.304 343.28 87.304ZM362.924 116.536C361.431 116.536 359.994 116.312 358.612 115.864C357.231 115.379 356.111 114.688 355.252 113.792C354.394 112.896 353.964 111.813 353.964 110.544C353.964 109.723 354.188 109.069 354.636 108.584C355.122 108.061 355.7 107.8 356.372 107.8C357.119 107.8 357.679 108.043 358.052 108.528C358.463 109.013 358.668 109.555 358.668 110.152C358.668 110.413 358.631 110.693 358.556 110.992C358.482 111.291 358.351 111.589 358.164 111.888C358.463 112.709 359.06 113.344 359.956 113.792C360.852 114.24 361.804 114.464 362.812 114.464C364.828 114.464 366.34 113.997 367.348 113.064C368.356 112.131 368.86 110.824 368.86 109.144C368.86 108.136 368.506 107.24 367.796 106.456C367.087 105.672 366.191 104.944 365.108 104.272C364.026 103.563 362.906 102.872 361.748 102.2C360.666 101.528 359.62 100.837 358.612 100.128C357.642 99.4187 356.839 98.6347 356.204 97.776C355.607 96.9173 355.308 95.9467 355.308 94.864C355.308 93.4827 355.719 92.232 356.54 91.112C357.362 89.9547 358.5 89.04 359.956 88.368C361.412 87.6587 363.092 87.304 364.996 87.304C366.415 87.304 367.74 87.528 368.972 87.976C370.242 88.424 371.268 89.0587 372.052 89.88C372.874 90.7013 373.284 91.672 373.284 92.792C373.284 93.576 373.06 94.2107 372.612 94.696C372.164 95.144 371.604 95.368 370.932 95.368C370.26 95.368 369.719 95.144 369.308 94.696C368.898 94.248 368.692 93.7253 368.692 93.128C368.692 92.8293 368.73 92.5493 368.804 92.288C368.879 91.9893 369.01 91.6907 369.196 91.392C369.01 90.7573 368.543 90.2347 367.796 89.824C367.087 89.376 366.098 89.152 364.828 89.152C364.007 89.152 363.204 89.3387 362.42 89.712C361.636 90.0853 360.983 90.608 360.46 91.28C359.938 91.9147 359.676 92.68 359.676 93.576C359.676 94.2853 359.882 94.9387 360.292 95.536C360.74 96.1333 361.319 96.6933 362.028 97.216C362.738 97.7387 363.503 98.2613 364.324 98.784C365.668 99.568 367.05 100.408 368.468 101.304C369.887 102.163 371.063 103.152 371.996 104.272C372.967 105.392 373.452 106.755 373.452 108.36C373.452 109.928 373.004 111.328 372.108 112.56C371.25 113.792 370.018 114.763 368.412 115.472C366.844 116.181 365.015 116.536 362.924 116.536Z" fill="#4F4F4F"/>
<path d="M74.9896 62.19C74.7696 61.9 74.9896 61.36 75.4796 61.76L74.9896 62.19C76.4496 63.48 74.3796 67.12 76.9596 67.15C76.6696 65.99 76.4096 64.44 78.0296 64.56C79.5296 65.76 77.7796 68.97 80.0096 68.67C79.3496 68.23 79.8996 65.84 80.9996 66.94C83.1196 70.07 88.0596 75.24 92.8196 72.45C90.9996 73.94 92.9896 72.99 93.6396 74.23C91.0396 80.55 90.5995 86.92 90.2896 93.32C86.5096 98.6 87.6395 104.14 88.6595 109.63C88.9395 109.1 89.1896 108.52 89.3596 107.95C89.8696 106.53 91.7196 106.14 92.6896 107.22L92.9796 107.56C92.9796 107.56 93.0396 107.46 93.1196 107.4C93.6796 106.7 94.1196 105.94 94.5196 105.06C94.8496 103.99 95.8696 103.61 96.9796 103.78C97.4696 103.92 97.8696 103.91 98.2796 103.78C98.9596 103.23 99.5795 102.8 100.22 102.2C99.8995 101.59 99.5796 100.91 99.2296 100.28C98.0996 97.95 99.0396 95.05 101.39 93.89C103.76 92.69 105.88 91.34 107.76 89.71C108.77 88.39 110.04 87.02 111.47 85.45C111.96 84.89 112.49 84.24 113.02 83.61C115.02 80.47 116.34 76.84 116.97 72.82C117.46 70.27 119.26 68.14 122.13 68.35C126.64 68.64 133.31 63.78 136.91 61.42C138.85 60.11 140.77 58.84 142.8 57.92C146.18 55.6 149.46 53.46 152.11 51.8C156.36 49.24 159.76 47.55 163.06 46.85C164.46 45.41 165.91 44 167.38 42.62C167.37 42.53 167.38 42.39 167.53 42.3C167.56 42.33 167.58 42.38 167.58 42.38C168.47 41.61 169.36 40.8 170.23 39.95C169.86 39.86 169.4 39.59 169.04 39.22C169.83 39.03 170.6 39.2 171.35 38.92C171.8 38.43 172.29 37.98 172.72 37.55C172.09 35.78 170.24 36.31 173.38 34.56C166.55 33.13 159.39 38.62 152.65 35.26C144.03 38.91 135.26 44.56 126.82 46.52C130.15 33.1 136.25 20.33 146.56 7.81C148.23 5.78 153.38 4.05 150.59 0.800003C147.44 2.36 144.78 3.69 142.89 0.889999C142.45 1.17 142.06 1.54 141.71 1.78C140.97 1.32 140.11 1.27 139.19 1.78C134.35 4.26 131.68 9.47 132.66 14.73C130.03 22.25 129.43 30.31 123.78 36.53C117.71 43.24 108.42 46.39 101.67 45.26C87.8596 42.94 73.1396 33.14 59.9396 26.61C41.4296 25.12 23.2496 16.75 4.80957 14.9C8.57957 16.82 12.4796 17.04 16.2496 19.02C11.4196 19.76 4.46957 15.91 0.929565 19.17C5.40957 19.9 9.93956 19.45 14.3596 20.74C10.0696 22.8 3.75959 18.64 0.709595 22.75C5.56959 22.65 10.4696 21.59 15.1296 23.47C10.2196 24.85 5.47955 23.97 0.539551 26.26C2.67955 28.37 5.04954 25.61 7.21954 27.08C6.53954 27.6 5.86954 28.23 6.21954 28.86C9.41954 28.86 12.5696 27.96 15.6896 28.81C16.1696 28.59 16.6496 28.02 17.0196 28.41C16.6096 28.69 16.1296 29.33 15.6896 28.81C14.4296 30.18 13.2496 29.05 11.9896 30.44C15.1396 33.11 21.0996 28.79 22.7696 31C21.3196 32.3 17.6296 32.17 17.6196 34.73C20.9796 33.86 24.2996 32.78 27.6696 32.59C25.5396 34.68 23.6196 34.44 21.5396 36.28C25.2196 38.05 29.2096 34.03 32.9896 33.75C31.8396 36.12 28.7396 36.9 26.3796 38.76C29.5796 40.41 33.1296 35.73 36.4996 35.67C36.5296 38.37 30.2496 38.57 31.6396 41.72C33.6196 41.02 35.6496 39.27 37.6396 38.88C36.6196 40.32 34.8695 41.68 34.7195 43.2C37.3295 44.28 40.3695 38.29 43.0995 38.29C43.9395 40.31 39.6496 41.91 40.4896 43.91C42.6296 42.53 44.9895 38.81 47.0995 38.95C46.8095 41.15 43.3896 43.15 44.4596 45.46C46.4296 44.2 47.1395 40.59 49.6595 40.83C48.5995 42.86 47.9496 44.92 47.4996 46.97C49.5096 45.84 49.8696 42.36 52.2696 42.73C51.9296 45.11 50.0196 47.35 50.0896 49.84C52.2596 48.79 51.0096 45.39 53.4596 45.92C54.8396 48.24 51.0995 50.27 52.6595 52.55C54.8095 51.62 53.5396 48.2 55.9596 48.71C54.9796 50.09 53.2396 55.47 55.6696 54.08C57.4296 53.1 54.8095 51.95 57.2195 51.07C56.9995 50.79 57.1596 50.21 57.6996 50.59L57.2195 51.08C58.1895 52.7 56.2496 54.55 56.9196 56.42C59.1096 54.84 58.8196 53.15 60.3296 51.63C61.4896 54.05 58.1996 56.28 59.9196 58.75C60.8396 58.06 60.3996 57.29 61.3796 56.62C61.0496 55.82 61.1496 55.12 61.9596 54.38C62.2896 55.14 62.2896 55.91 61.3796 56.62C62.2296 57.84 60.5095 58.91 62.0995 60.21C63.3295 59.32 63.8596 58.52 64.0696 57.62C64.4896 56.71 63.8996 53.49 65.1096 54.13C68.5396 56.19 66.8696 60.46 68.7596 61.89C67.7096 60.63 69.8795 59.56 69.8495 58.35C71.6796 60.4 69.0695 62.19 70.8495 64.25C72.0195 63.38 70.9296 60.11 72.8596 60.73C73.4896 62.43 72.4396 64.02 73.0096 65.68C75.4496 65.82 73.1596 63.4 75.0296 62.23L74.9896 62.19Z" fill="#4F4F4F"/>
</svg>
