<svg width="442" height="33" viewBox="0 0 442 33" fill="none" xmlns="http://www.w3.org/2000/svg">
<path d="M441.29 32.72C440.51 28.58 439.37 24.4498 437.56 20.3198C437.64 20.5598 436.56 18.3398 436.4 18.0698C435.96 17.3398 435.51 16.6099 435 15.9199C434.83 15.6899 433.94 14.6499 433.93 14.6099C433.49 14.1299 433.03 13.66 432.56 13.22C429.62 10.51 427.88 9.32986 423.29 7.35986C420.07 5.97986 414.79 4.45979 409.95 3.53979C404.74 2.53979 401.21 2.06995 396 1.69995C384.91 0.889951 373.78 0.939814 362.68 1.30981C336.63 2.18981 310.56 2.8698 284.51 4.0498C248.85 5.6598 213.2 7.71998 177.49 7.97998C156.04 8.12998 134.89 10.0299 113.53 11.5999C90.0401 13.3199 66.1101 14.7099 42.6401 12.1399C21.9801 9.86989 7.06009 3.12003 0.970093 0.530029C0.880093 12.21 0.930088 22.7 0.840088 32.75H441.29V32.73V32.72Z" fill="white"/>
</svg>
