<svg width="467" height="55" viewBox="0 0 467 55" fill="none" xmlns="http://www.w3.org/2000/svg">
<g filter="url(#filter0_d_79_8638)">
<path d="M3 3.51001C4.78 9.26001 6.25998 14.6599 11.35 18.6399C16.13 22.3799 22.92 23.56 28.96 24.74C32.64 25.45 33.57 25.8699 39.71 26.8799C50.98 28.6999 54.08 29.0198 61.52 30.0498C75.68 32.0098 88.71 33.8999 101.24 34.1399C124.65 34.5899 148.06 35.19 171.46 35.74C222.54 36.94 273.77 37.9399 324.88 36.4399C352.17 37.9299 380.83 36.31 407.98 34.77C417.48 34.24 434.62 34.06 441.19 27.52C448.26 20.48 449.21 14.42 449 3.5H3.00995L3 3.51001Z" fill="white"/>
</g>
<defs>
<filter id="filter0_d_79_8638" x="0" y="0.5" width="466.026" height="53.6953" filterUnits="userSpaceOnUse" color-interpolation-filters="sRGB">
<feFlood flood-opacity="0" result="BackgroundImageFix"/>
<feColorMatrix in="SourceAlpha" type="matrix" values="0 0 0 0 0 0 0 0 0 0 0 0 0 0 0 0 0 0 127 0" result="hardAlpha"/>
<feOffset dx="7" dy="7"/>
<feGaussianBlur stdDeviation="5"/>
<feColorMatrix type="matrix" values="0 0 0 0 0 0 0 0 0 0 0 0 0 0 0 0 0 0 0.1 0"/>
<feBlend mode="normal" in2="BackgroundImageFix" result="effect1_dropShadow_79_8638"/>
<feBlend mode="normal" in="SourceGraphic" in2="effect1_dropShadow_79_8638" result="shape"/>
</filter>
</defs>
</svg>
