<svg width="144" height="95" viewBox="0 0 144 95" fill="none" xmlns="http://www.w3.org/2000/svg">
<path d="M95.8999 2.99023L95.7899 3.06982C95.7699 3.11982 95.8199 3.20023 95.8199 3.24023C95.8099 3.24023 95.6999 3.30982 95.6899 3.31982C95.6999 3.31982 95.6299 3.16015 95.6299 3.16015C95.6799 3.13015 95.7199 3.10007 95.7499 3.08007L95.7199 2.93017C95.4499 3.01017 95.1799 3.1798 94.9299 3.2998C94.8699 3.2898 94.8599 3.25019 94.8499 3.20019C94.8699 3.12019 94.9099 3.1398 94.9599 3.0498C94.9899 2.9898 94.8899 2.9699 94.9199 2.8999C94.9499 2.8499 94.9999 2.8298 95.0499 2.7998C95.0299 2.7898 94.9899 2.68994 94.9899 2.68994C94.8799 2.70994 94.7699 2.74003 94.6799 2.79003C94.6399 2.76003 94.5999 2.72017 94.5699 2.68017C94.5199 2.65017 94.4899 2.74021 94.4299 2.72021C94.3799 2.66021 94.3599 2.63984 94.3099 2.58984L94.1999 2.68994C94.1999 2.68994 94.2399 2.76982 94.2399 2.81982C93.8199 3.10982 93.5399 2.57982 93.0799 2.81982C93.0399 2.71982 92.9199 2.63002 92.8999 2.52002L92.7699 2.58007C92.7799 2.64007 92.8099 2.68976 92.8099 2.75976C92.6199 2.75976 92.4399 2.70019 92.2299 2.70019C92.5099 2.29019 91.2599 2.42002 91.2999 2.52002C91.1199 2.72002 90.9299 2.77988 90.7599 2.62988C90.6999 2.59988 90.6799 2.68992 90.6099 2.66992C90.5699 2.62992 90.5499 2.58003 90.4999 2.54003C90.4999 2.56003 90.3899 2.60009 90.3899 2.60009C90.3899 2.67009 90.3999 2.7498 90.3999 2.7998C90.3799 2.8298 90.3999 2.58009 90.3799 2.60009C90.3399 2.57009 90.2299 2.76998 90.1899 2.72998C90.0899 2.79998 90.0799 2.56009 89.9599 2.60009C89.9699 2.55009 89.8499 2.77976 89.8799 2.75976C89.8699 2.74976 89.7999 2.62988 89.7999 2.62988C89.7999 2.62988 89.7799 3.32007 89.7699 3.33007C89.7599 3.29007 89.7299 3.95019 89.7299 3.95019H89.6699C89.5299 3.95019 89.3599 2.85978 89.2399 2.77978C89.2399 2.77978 89.2499 2.63017 89.2799 2.68017L89.2399 2.58007L89.1299 2.31982C89.1299 2.31982 89.1599 2.22996 89.1699 2.20996L88.9199 2.18994C88.8699 2.18994 88.7299 2.12988 88.7299 2.12988C88.7099 2.05988 88.6499 2.04021 88.6399 1.97021C88.6399 1.91021 88.4999 1.81009 88.4699 1.85009C88.4299 1.81009 87.9399 1.83984 87.9099 1.83984C87.7099 1.80984 87.6599 1.69005 87.5699 1.81005C87.5699 1.81005 87.5299 1.74998 87.4799 1.72998C86.9199 0.699976 84.4199 0.810054 84.4199 0.810054C82.8699 0.920054 81.2399 2.24023 81.2399 2.24023C80.0299 3.09023 78.4799 6.45988 78.3099 6.87988C78.1299 7.31988 77.3099 8.41994 76.6899 8.93994C75.7599 9.70994 74.7499 10.4901 73.7099 11.0801C72.3299 11.8701 70.9299 12.67 69.4499 13.25C67.3299 14.08 65.1199 14.7099 62.8899 15.1299C60.4799 15.5899 58.0299 15.7502 55.5699 15.7202C53.0899 15.7202 50.6099 15.3899 48.1399 15.1299C42.1199 14.5499 33.3199 10.7798 21.6899 10.5698C21.0699 10.5698 16.6799 10.4202 8.5399 13.7202C8.1699 13.9502 7.45993 14.0199 6.94993 13.8999C7.12993 14.1299 6.98993 14.1702 6.69993 14.2002C7.02993 14.5502 7.03993 14.5201 6.88993 14.8301C5.88993 15.0501 7.01991 14 5.98991 14.73C6.15991 14.98 6.09991 14.9798 5.98991 15.2798C5.88991 15.1698 5.73991 15.1 5.54991 15.27C5.44991 15.75 6.1199 15.3098 5.6099 15.7998C5.2899 15.9098 4.89989 16.15 4.90989 15.75C4.66989 16.15 4.79993 16.1798 4.50993 16.5698C4.31993 15.5898 4.41991 16.7301 3.92991 16.6201C4.02991 16.4601 3.97994 16.11 3.76994 16.25C3.59994 16.49 3.98989 16.8199 3.40989 16.6899C3.48989 16.8999 3.42989 17.1198 3.40989 17.3398C3.18989 17.1998 2.96994 17.3798 2.95994 17.0498C2.89994 17.3298 2.39993 17.6398 2.00993 17.5498C2.13993 17.7298 2.03989 17.6302 1.84989 17.6602C2.06989 17.9102 1.90994 17.9602 1.82994 18.2202C1.20994 18.4402 1.85993 17.6002 1.25993 18.2202C1.39993 18.4702 1.32994 18.3802 1.20994 18.7202L1.29991 18.7798C0.939907 18.9598 0.2999 19.4499 0.9799 19.6899C0.6199 19.4899 1.29991 18.9898 1.42991 19.0698C1.16991 19.4098 0.949912 19.5602 1.17991 19.9902C1.21991 19.7902 1.45991 18.7699 2.23991 18.8599C3.47991 17.4299 4.70989 17.8501 4.65989 17.5601C5.43989 17.3201 6.20992 16.05 8.93992 15.98C8.86992 15.39 9.2399 15.7002 9.8599 15.4702C9.8599 15.4702 8.70994 16.29 7.95994 17C7.76994 16.96 7.07991 17.0101 7.48991 17.0801L6.88993 17.3398C6.91993 17.3998 7.07995 17.4399 7.33995 17.3999C6.61995 17.9899 5.69992 18.4798 4.80992 19.0298C4.06992 19.4898 6.58995 18.5499 9.52995 16.9199C8.06995 18.6699 5.08995 19.0398 4.52995 21.0698C3.74995 21.1898 0.379929 24.05 1.50993 23.27C1.10993 23.8 2.38989 22.3798 2.71989 23.0298C2.89989 22.9798 3.05989 22.99 3.09989 23.21C3.26989 22.8 2.7899 22.4802 3.2299 22.2402C3.6399 23.1902 3.5099 22.3499 4.0399 22.4199C3.9699 22.5999 4.04992 22.9398 4.24992 22.7798C4.38992 22.5398 4.01989 22.15 4.65989 22.23C4.52989 22.03 4.40992 21.8201 4.37992 21.6001C4.64992 21.7101 4.7699 21.63 4.8499 21.96C4.90989 21.26 5.3699 21.4 5.9199 21.48C5.7499 21.3 5.92991 21.2602 6.11991 21.2002C5.83991 20.9602 5.64992 20.72 5.68992 20.46C6.28992 20.21 5.9199 21.4598 6.4199 20.7998C6.0899 20.4198 6.0799 19.3599 6.4799 19.3599C6.3199 19.5799 6.36989 19.71 6.5999 19.73C6.27989 19.81 6.27989 20.74 6.5999 20.52C6.6299 19.88 7.8499 20.0401 7.5999 19.1401C8.21989 19.5301 8.52989 19.0402 8.71989 18.9102C9.34989 20.1602 10.3599 17.3802 11.3599 17.9102C10.9899 16.9802 12.0899 16.83 13.0099 16.77C14.4999 15.22 17.6099 13.9202 18.6699 13.7202C18.5099 13.8202 18.3099 14.0802 18.0899 14.7402C24.3999 12.4302 37.1699 19.8799 50.9799 23.6699L49.8699 26.6401C48.1799 25.7701 43.0699 23.0799 38.5499 22.6499C35.4299 22.3599 33.2699 23.3498 30.8999 24.5298C30.8699 24.8298 30.9199 25.06 31.0399 25.21C25.6499 29.79 24.0699 38.9799 25.3899 47.3999C26.0099 51.3999 28.8199 55.5099 32.0199 57.8599C33.9199 58.8299 40.1199 61.6902 48.3499 55.7202C48.6499 59.3402 48.5599 62.7198 50.0099 65.2798C50.0699 65.1398 50.0299 64.9402 50.1899 64.9502C49.6299 65.6602 50.8999 66.5301 50.8399 65.8101C51.2099 66.0601 50.4999 66.3198 51.1599 66.3198L51.1899 65.6499C51.6299 66.1199 51.3499 65.4001 51.6999 65.3301C52.0699 65.5801 51.4699 65.7198 51.8499 65.8398C52.1399 65.6198 52.0799 65.0399 52.7099 65.1899C52.5999 64.6099 53.0399 64.4902 52.7399 64.1802C53.5599 64.1502 53.8599 63.1602 53.8099 62.7002C54.0999 62.7002 54.3199 62.7599 54.4699 62.8999C54.6599 61.8599 54.3799 60.7599 53.5599 60.1699C53.9499 59.9599 54.1799 60.6302 54.2399 60.2002C54.0199 60.1302 53.8999 59.9702 53.9099 59.6802C54.1999 59.6302 54.3399 59.95 54.4199 59.71C54.0399 59.75 54.4399 57.8599 54.6399 58.3599C54.4999 56.7199 54.5199 54.72 54.4699 52.98C60.4399 48.13 62.7499 40.8599 72.2499 40.1899C76.4299 45.1199 74.3799 49.0099 71.5899 56.1299C71.4099 56.1999 71.2299 56.6801 70.9599 56.6201C68.8499 61.6801 67.7399 63.6601 61.6299 78.1001C61.0999 79.5601 59.7099 81.64 59.3899 82.73C57.9899 84.54 57.5599 87.9401 57.1899 89.6001C57.3599 88.8601 56.2899 91.2999 57.0899 91.1499C56.9999 91.3899 56.9399 91.6 57.2399 91.71C57.2699 91.5 57.2999 91.4901 57.5799 91.5601C57.5499 92.2801 55.7099 91.6001 56.5299 92.3701C56.2799 91.9501 57.1199 91.8902 57.0399 92.2202C56.3799 92.5702 56.6599 93.2002 56.0799 93.1802C56.1599 93.4602 56.1999 93.5301 56.6999 93.0601C56.5699 93.0601 56.4799 94.15 56.5099 94.0601C56.8299 94.08 56.9699 94.8999 57.0699 94.8999H57.0999C56.9699 94.8999 56.8299 94.3702 56.6999 94.4902C56.8699 94.4902 57.1299 93.6601 57.2599 93.5801C57.1999 93.5301 57.1499 92.9598 57.1399 92.8198C57.3299 92.8098 57.5599 92.6601 57.6599 92.6601L57.7099 91.8999C57.7099 91.8999 57.7099 91.8599 57.7199 91.8599C57.7399 91.8099 57.7199 91.76 57.7199 91.71L57.7399 91.4399C57.7999 91.3499 57.7799 91.3802 57.7199 91.4702C57.5799 91.1602 57.1499 91.0002 57.5999 90.7202C57.6099 90.9802 57.5599 91.2199 57.9199 91.1499C58.0799 90.6499 57.8499 90.3801 57.6299 89.8701C58.1699 89.8401 58.5899 89.24 57.9999 88.96C58.2199 88.96 58.3599 89.1402 58.4899 89.2402C58.4999 89.0002 58.4299 88.7701 58.3399 88.6401C58.5199 88.6401 58.5399 88.7698 58.6799 88.8198C58.7099 88.3998 58.8099 88.0098 58.6199 87.7998C59.9699 87.2098 59.5099 85.4098 60.6399 85.0698C59.9499 84.4198 62.2599 82.4099 61.4699 82.1499C61.7999 82.1299 61.5999 82.1101 61.8999 82.1001C61.8199 81.5701 61.4399 81.6598 62.2199 81.2598C62.0499 81.6298 62.0299 82.4798 62.1999 82.5698C62.5299 82.3998 62.2499 81.8801 62.4799 82.0601C62.5199 81.87 62.5399 82.4701 62.6999 82.3901C62.4699 84.6401 59.5599 89.03 60.1099 90.98C59.4799 90.4 58.6999 95.2402 58.9899 94.4702C59.0299 95.0302 59.2299 92.9401 59.8499 93.6601C59.4199 93.6002 59.2899 93.8698 59.3199 94.3198C59.4199 94.3798 59.9499 94.7598 59.9999 94.3398C59.7699 93.9498 59.4499 94.66 59.5099 94C59.6699 93.7 60.1099 93.5801 60.3499 93.8501C60.2899 93.4401 59.9299 93.2901 59.8899 92.8301C60.6299 93.3701 59.9899 92.5901 60.4099 92.3501C60.4499 92.5301 60.6599 92.7598 60.7299 92.5298C60.7199 92.2398 60.2599 92.1399 60.7699 91.8599C60.5699 91.7599 60.3799 91.66 60.2699 91.5C60.5199 91.44 60.8899 90.77 61.3299 90.54C61.1199 90.48 61.2199 90.3402 61.3299 90.2002C61.0199 90.1702 60.7699 90.0698 60.6599 89.8398C60.9799 89.2998 61.3099 90.5199 61.3499 89.6899C60.9399 89.5799 60.4199 88.7302 60.7199 88.4902C60.6999 88.7602 60.7999 88.8402 60.9799 88.7202C60.7799 88.9602 61.2099 89.7201 61.3499 89.3501C61.0699 88.8301 61.7499 88.7799 61.1499 88.1899C61.7699 88.1499 63.1999 83.9798 63.2799 83.7798C64.3099 84.4298 63.5599 82.2098 64.5199 82.0698C63.7999 81.5298 64.6899 81.25 64.0599 80.96C64.8499 81.06 64.5099 80.5201 65.1799 80.3301C65.1799 80.0701 65.1799 79.9398 65.1799 79.8398C65.1999 79.8098 65.2199 79.7902 65.2399 79.7202C65.0399 79.6302 64.8599 79.5299 64.7399 79.3799C65.4399 79.0999 65.8699 79.2199 65.4499 78.3799C65.5099 78.3799 65.7899 78.5401 65.7799 78.5601C65.9299 77.19 65.1399 77.3798 66.5499 76.7998C66.4999 76.6998 66.4999 76.6899 66.4699 76.6499C66.4399 76.6499 66.4199 76.6098 66.4099 76.5498C66.4099 76.5498 66.4099 76.55 66.4099 76.54C66.5099 75.83 67.2999 76.4801 67.2599 75.9101C67.1299 75.2501 66.6299 76.4399 66.5899 75.8799C67.0299 75.9599 67.4199 74.5102 67.7599 73.7402C67.7999 73.1802 68.6599 72.5701 68.3099 72.1001C68.5299 72.2801 68.9199 72.2902 69.1399 72.4702C69.5399 71.5302 69.2599 70.2002 70.2299 69.9702C70.3099 70.2202 69.5599 70.36 70.0399 70.46C70.3399 70.19 71.3899 68.7299 70.5899 69.1099C71.0299 68.9099 70.2899 68.79 70.5999 68.79C70.7899 69.08 70.9999 68.9999 71.2199 68.9199C71.1799 68.9199 71.1199 68.8898 71.0299 68.8198C70.8999 68.7498 70.8499 68.7498 70.8199 68.7798C70.8199 68.7398 70.8199 68.7199 70.7699 68.6299C70.7999 68.6299 70.7899 68.6101 70.7899 68.6001C70.9799 68.7901 71.3099 68.6999 71.1899 68.6499C71.4799 68.0899 71.6199 67.81 71.3199 67.46C71.7599 67.04 71.5599 66.73 71.8499 66.48C71.8599 66.53 71.8499 66.5701 71.8699 66.6201C71.8699 66.4901 71.8899 66.3502 71.9599 66.1802C72.1499 66.1502 72.4399 66.2298 72.4699 66.0298C72.2699 66.0698 71.8999 65.8601 72.3099 65.8501C72.3399 66.0501 72.5699 65.9299 72.6399 65.6899C72.4099 65.2699 73.0299 64.6102 73.8599 64.7402C73.7099 63.7802 74.2199 64.5102 74.2199 63.9102C74.1699 63.9102 74.1199 63.8401 74.0599 63.8101C74.0099 63.8801 73.9499 63.9098 73.8499 63.8398C73.8599 63.9298 73.7499 64.0901 73.3899 64.0801C73.3299 63.6701 73.1899 64.24 73.0499 63.75C73.3099 63.81 73.4899 63.7098 73.6299 63.5298C73.5499 63.4698 73.4699 63.3901 73.3999 63.3701C73.5399 63.2401 73.6499 63.2501 73.7599 63.3101C74.0399 62.7601 74.1199 61.9198 74.5299 62.0298C74.3099 61.8498 74.6099 61.7498 74.2199 61.5098C74.9599 60.6098 75.9999 60.4601 75.6399 59.3701C76.1399 59.9701 76.0399 60.0899 76.5399 59.9199C76.1299 59.8599 76.1199 59.4599 75.9999 59.1499C75.9599 59.1499 75.9199 59.1498 75.8999 59.0498C75.8999 59.0298 75.9099 59.03 75.9199 59.02C75.8899 58.97 75.8699 58.9199 75.8299 58.8799C75.8899 58.8599 75.9399 58.8801 75.9799 58.8901C76.1299 58.6701 76.4499 59.1398 76.5899 58.7598C75.8499 58.7598 76.6999 58.2698 76.2799 58.0698H76.7899C76.8399 57.4398 76.7199 55.5799 77.1999 55.3799C77.1199 55.5799 77.0499 56.1099 77.0099 56.6499C77.3999 56.2499 77.6599 56.3399 78.0299 56.1899C77.4199 55.8699 77.9199 55.8902 77.4699 55.1602C77.6799 54.7602 78.0899 55.5298 78.3099 55.0298C77.1599 54.4498 78.1099 54.2198 78.5399 53.5098C78.7699 53.5598 78.7999 53.7999 79.0199 53.8599C79.0899 53.5299 78.5599 53.5301 78.4599 53.3501C78.7499 53.0801 78.7699 52.0399 78.7699 51.8599C78.7699 51.7599 79.1299 51.7898 79.0099 51.8398C81.8699 39.3098 74.5399 34.81 70.0699 34.77C63.9499 34.71 56.5199 41.9601 53.2599 45.6401C53.2599 45.6401 53.9999 39.7201 55.8399 33.0801C56.6299 30.2301 58.0699 26.5799 58.6199 25.1899L58.9899 25.2598C68.1499 27.6998 76.2899 11.9398 84.0099 6.5498C84.0599 6.5898 85.0099 6.23996 85.0499 6.20996C85.1099 6.25996 85.5699 6.1398 85.7599 6.0498C85.8299 6.0698 86.7599 5.69015 86.8799 5.66015C86.9599 5.66015 87.5799 5.33003 87.6699 5.29003C87.6799 5.09003 88.9299 4.76013 88.7899 4.89013C88.8299 4.93013 92.2899 4.6199 92.3099 4.6499C92.5199 4.5699 93.0799 4.5699 93.1099 4.6499C93.1899 4.6199 93.4799 4.6099 93.4999 4.6499C93.5999 4.6199 93.8599 4.6199 93.9099 4.6499C93.9999 4.6099 95.1899 4.43 95.4499 4.25C95.4499 4.19 96.0499 3.10978 95.8499 3.02978L95.8999 2.99023ZM2.26994 18.2998C2.32994 18.2098 2.38993 18.1298 2.38993 18.0498C2.38993 18.0898 2.4099 18.1402 2.4199 18.1802C2.3699 18.2102 2.31994 18.2598 2.26994 18.2998ZM2.36991 17.9702C2.33991 17.9102 2.27991 17.86 2.17991 17.79C2.41991 17.48 2.26994 17.3602 2.51994 17.6602C2.36994 17.7702 2.34991 17.86 2.36991 17.96V17.9702ZM5.11991 20.9702C5.52991 20.6302 4.90991 20.8402 5.29991 20.4702C5.37991 20.7602 4.99995 20.6699 5.58995 20.9199C5.48995 21.0899 5.35991 21.1802 5.11991 20.9702ZM42.6799 51.1201C42.2699 51.1901 41.0999 51.2702 40.2499 50.9702C38.3799 50.3402 36.4199 47.35 36.1899 45.23C36.0099 43.65 36.1499 41.0602 37.2599 39.4302C37.4799 39.1302 37.7399 38.8799 38.0299 38.6699C38.0299 38.6999 38.0299 38.7102 38.0599 38.7402L38.0899 38.6802C38.0899 38.6802 41.6199 36.9099 46.4299 36.9399C46.7199 36.9599 47.0499 36.9702 47.4099 36.9702C47.1299 39.6302 48.1399 48.7398 48.1899 48.7998C48.1899 48.7998 43.8699 51.1901 42.6799 51.1201ZM57.0999 91.1401C56.8699 91.1101 57.0999 90.6999 57.2299 90.6699C57.2299 90.8299 57.1599 90.9901 57.0999 91.1401ZM60.9999 90.1601C61.0299 90.5302 60.8499 90.6999 60.4899 90.6499C60.6299 90.1399 59.9199 90.43 60.1899 89.79C60.3799 89.99 60.4799 90.2799 61.0099 90.1499L60.9999 90.1601ZM70.7299 68.46C70.7299 68.46 70.7699 68.4998 70.7799 68.5298C70.6799 68.4898 70.5499 68.47 70.7299 68.46ZM78.6399 51.8301L79.2099 51.8501C79.0399 51.9101 78.8099 51.9501 78.6399 51.8301ZM78.9799 51.02C79.2799 51.07 79.3899 51.14 79.3199 51.52C79.0199 51.35 78.7399 52 78.6499 51.5C78.1999 51.23 79.3299 52 78.9799 51.02Z" fill="#B3B3B3"/>
<path d="M76.06 59.1206C76.06 59.1206 76.15 59.1003 76.2 59.0903C76.16 58.9903 76.11 58.9004 76.04 58.8604C76.02 58.8904 76 58.9207 75.98 58.9907C76.01 59.0307 76.05 59.0706 76.07 59.1206H76.06Z" fill="#B3B3B3"/>
<path d="M72.2194 90.0801V81.2309H73.1722V86.0426L77.1263 81.2309H78.2935L74.78 85.4114L74.6729 85.5424L72.934 87.5194L73.1722 86.6738V90.0801H72.2194ZM76.9715 89.425C76.8047 89.1312 76.6043 88.8057 76.37 88.4484C76.1358 88.0871 75.8916 87.7199 75.6376 87.3467C75.3835 86.9696 75.1413 86.6123 74.9111 86.2748C74.6848 85.9334 74.4942 85.6376 74.3394 85.3875L74.6848 85.2089L75.0302 84.8039C75.1215 84.9548 75.2584 85.1692 75.441 85.4471C75.6276 85.721 75.838 86.0327 76.0723 86.382C76.3105 86.7274 76.5526 87.0847 76.7988 87.4539C77.0449 87.8231 77.2772 88.1804 77.4955 88.5258C77.7178 88.8672 77.9044 89.1709 78.0553 89.4369C78.0672 89.4568 78.1029 89.5163 78.1625 89.6156C78.222 89.7109 78.2816 89.8081 78.3411 89.9074C78.4007 90.0027 78.4364 90.0602 78.4483 90.0801H77.3288C77.2811 90.0086 77.2355 89.9272 77.1918 89.8359C77.1481 89.7406 77.0747 89.6037 76.9715 89.425ZM81.2344 90.1754C80.8454 90.1754 80.498 90.1019 80.1923 89.955C79.8906 89.8081 79.6524 89.5977 79.4777 89.3238C79.307 89.0459 79.2216 88.7144 79.2216 88.3293C79.2216 87.8926 79.3427 87.5234 79.5849 87.2217C79.831 86.916 80.1863 86.6778 80.6508 86.5071C80.9089 86.4078 81.1947 86.3304 81.5084 86.2748C81.822 86.2153 82.1297 86.1736 82.4314 86.1498C82.7371 86.126 83.005 86.114 83.2353 86.114L83.4497 86.388L83.2353 86.7334C83.0765 86.7334 82.8721 86.7433 82.6219 86.7631C82.3718 86.783 82.1158 86.8167 81.8537 86.8644C81.5957 86.908 81.3734 86.9676 81.1868 87.043C80.8533 87.1661 80.6012 87.3249 80.4305 87.5194C80.2598 87.714 80.1744 87.9601 80.1744 88.2578C80.1744 88.6032 80.2796 88.8891 80.4901 89.1154C80.7005 89.3377 81.0439 89.4488 81.5203 89.4488C81.8021 89.4488 82.0642 89.4111 82.3063 89.3357C82.5525 89.2603 82.7589 89.1769 82.9256 89.0856C83.0924 88.9903 83.1996 88.9169 83.2472 88.8653L83.4616 89.0558L83.3068 89.4488C83.1281 89.6156 82.8562 89.7784 82.4909 89.9372C82.1297 90.096 81.7108 90.1754 81.2344 90.1754ZM84.2 90.0801H83.2949V89.1392L83.2353 89.1273V85.4233C83.2353 84.9151 83.1063 84.5757 82.8482 84.405C82.5942 84.2343 82.2071 84.1489 81.687 84.1489C81.4647 84.1489 81.2285 84.1787 80.9784 84.2382C80.7322 84.2938 80.5039 84.3653 80.2935 84.4526C80.0831 84.5399 79.9204 84.6253 79.8052 84.7087L79.567 84.0179C79.6425 83.9663 79.7993 83.8869 80.0375 83.7797C80.2796 83.6725 80.5675 83.5752 80.9009 83.4879C81.2344 83.3966 81.5798 83.3509 81.9371 83.3509C82.3897 83.3509 82.7847 83.4105 83.1222 83.5296C83.4636 83.6487 83.7276 83.8611 83.9142 84.1668C84.1047 84.4725 84.2 84.9032 84.2 85.459V90.0801ZM86.3509 80.4211H87.2918V83.1842L87.2441 84.3156L87.2918 84.3514V89.2821L86.3509 89.7109V80.4211ZM88.5781 90.1754C88.3359 90.1754 88.0937 90.1575 87.8515 90.1218C87.6133 90.09 87.391 90.0503 87.1846 90.0027C86.9781 89.9511 86.8015 89.8994 86.6546 89.8478C86.5077 89.7962 86.4065 89.7506 86.3509 89.7109L87.2918 89.1749C87.4069 89.2583 87.5895 89.3278 87.8396 89.3833C88.0937 89.435 88.3756 89.4608 88.6852 89.4608C89.0743 89.4608 89.4376 89.3575 89.775 89.1511C90.1164 88.9447 90.3923 88.635 90.6028 88.2221C90.8132 87.8053 90.9204 87.2812 90.9243 86.65C90.9323 85.8282 90.7755 85.2029 90.4539 84.7742C90.1323 84.3414 89.6579 84.1251 89.0306 84.1251C88.6614 84.1251 88.318 84.2005 88.0004 84.3514C87.6868 84.5022 87.4466 84.6531 87.2799 84.8039L87.125 84.3037C87.2283 84.1965 87.3732 84.0695 87.5598 83.9226C87.7463 83.7717 87.9826 83.6407 88.2684 83.5296C88.5542 83.4184 88.8957 83.3628 89.2927 83.3628C89.777 83.3628 90.2177 83.48 90.6147 83.7142C91.0117 83.9444 91.3273 84.2938 91.5615 84.7623C91.7957 85.2268 91.9129 85.8123 91.9129 86.519C91.9129 87.2415 91.7719 87.8787 91.4901 88.4305C91.2122 88.9784 90.8231 89.4072 90.3229 89.7168C89.8227 90.0225 89.241 90.1754 88.5781 90.1754ZM93.6794 90.0801V83.4581H94.6442V90.0801H93.6794ZM94.1082 82.0051C93.9375 82.0051 93.7886 81.9475 93.6616 81.8324C93.5385 81.7173 93.477 81.5565 93.477 81.35C93.477 81.2032 93.5127 81.0741 93.5842 80.963C93.6556 80.8478 93.7449 80.7585 93.8521 80.695C93.9633 80.6315 94.0764 80.5997 94.1916 80.5997C94.406 80.5997 94.5648 80.6632 94.668 80.7903C94.7712 80.9133 94.8228 81.0682 94.8228 81.2548C94.8228 81.4811 94.7494 81.6637 94.6025 81.8026C94.4595 81.9376 94.2948 82.0051 94.1082 82.0051ZM97.7568 85.0421L97.6853 84.399C97.7528 84.2878 97.8917 84.1509 98.1021 83.9881C98.3126 83.8253 98.5627 83.6804 98.8525 83.5534C99.1423 83.4264 99.44 83.3628 99.7457 83.3628C99.8966 83.3628 100.024 83.3688 100.127 83.3807C100.234 83.3926 100.317 83.4105 100.377 83.4343V84.3514C100.317 84.3196 100.228 84.2878 100.109 84.2561C99.9939 84.2243 99.8132 84.2084 99.5671 84.2084C99.2971 84.2084 99.043 84.2561 98.8048 84.3514C98.5706 84.4427 98.3622 84.5538 98.1796 84.6848C98.0009 84.8119 97.86 84.931 97.7568 85.0421ZM96.8397 90.0801V83.4581H97.6734L97.7329 84.399L97.8163 84.8159V90.0801H96.8397ZM103.855 90.0801V81.2309H104.332C104.661 81.2309 105.013 81.2171 105.386 81.1893C105.759 81.1615 106.138 81.1476 106.523 81.1476C107.146 81.1476 107.688 81.2429 108.149 81.4334C108.609 81.62 108.965 81.9237 109.215 82.3445C109.469 82.7614 109.596 83.3152 109.596 84.006C109.596 84.9627 109.298 85.7032 108.703 86.2272C108.107 86.7473 107.297 87.0113 106.273 87.0192C105.959 87.0192 105.67 87.0113 105.404 86.9954C105.142 86.9795 104.951 86.9716 104.832 86.9716V90.0801H103.855ZM104.832 86.2212C105.011 86.2451 105.241 86.2629 105.523 86.2748C105.805 86.2867 106.035 86.2927 106.214 86.2927C106.662 86.2848 107.067 86.2093 107.428 86.0664C107.79 85.9195 108.075 85.6813 108.286 85.3518C108.5 85.0183 108.607 84.5697 108.607 84.006C108.607 83.2318 108.411 82.676 108.018 82.3386C107.625 82.0011 107.031 81.8423 106.237 81.8622C106.011 81.8661 105.773 81.8741 105.523 81.886C105.273 81.8939 105.042 81.9138 104.832 81.9455V86.2212ZM112.039 85.0421L111.968 84.399C112.035 84.2878 112.174 84.1509 112.385 83.9881C112.595 83.8253 112.845 83.6804 113.135 83.5534C113.425 83.4264 113.723 83.3628 114.028 83.3628C114.179 83.3628 114.306 83.3688 114.41 83.3807C114.517 83.3926 114.6 83.4105 114.66 83.4343V84.3514C114.6 84.3196 114.511 84.2878 114.392 84.2561C114.277 84.2243 114.096 84.2084 113.85 84.2084C113.58 84.2084 113.326 84.2561 113.088 84.3514C112.853 84.4427 112.645 84.5538 112.462 84.6848C112.284 84.8119 112.143 84.931 112.039 85.0421ZM111.122 90.0801V83.4581H111.956L112.016 84.399L112.099 84.8159V90.0801H111.122ZM118.24 90.1754C117.712 90.1754 117.264 90.0801 116.895 89.8895C116.525 89.699 116.226 89.4389 115.995 89.1094C115.765 88.7799 115.598 88.4028 115.495 87.978C115.392 87.5532 115.342 87.1065 115.346 86.6381C115.358 85.9354 115.497 85.3399 115.763 84.8516C116.033 84.3633 116.392 83.9941 116.841 83.744C117.294 83.4899 117.8 83.3628 118.359 83.3628C119.05 83.3628 119.608 83.5236 120.033 83.8452C120.462 84.1668 120.771 84.5935 120.962 85.1255C121.156 85.6535 121.25 86.2292 121.242 86.8525C121.23 87.5591 121.093 88.1606 120.831 88.6568C120.573 89.1491 120.219 89.5263 119.771 89.7883C119.322 90.0463 118.812 90.1754 118.24 90.1754ZM118.264 89.4846C118.895 89.4885 119.384 89.2523 119.729 88.7759C120.078 88.2956 120.253 87.6425 120.253 86.8167C120.257 86.3086 120.192 85.8481 120.057 85.4352C119.922 85.0183 119.713 84.6868 119.431 84.4407C119.15 84.1946 118.788 84.0695 118.348 84.0655C117.724 84.0536 117.234 84.274 116.877 84.7265C116.523 85.1791 116.343 85.8203 116.335 86.65C116.335 87.1542 116.402 87.6207 116.537 88.0494C116.672 88.4742 116.881 88.8176 117.163 89.0796C117.448 89.3417 117.816 89.4766 118.264 89.4846ZM121.297 92.9504V92.2358C121.357 92.2596 121.456 92.2834 121.595 92.3072C121.73 92.3311 121.853 92.343 121.964 92.343C122.357 92.343 122.639 92.1822 122.81 91.8606C122.985 91.5391 123.072 91.0249 123.072 90.3183V83.4581H124.037V89.9491C124.037 90.6676 123.963 91.2532 123.816 91.7058C123.673 92.1623 123.455 92.4978 123.161 92.7122C122.872 92.9266 122.508 93.0338 122.072 93.0338C122 93.0338 121.909 93.0298 121.798 93.0218C121.686 93.0139 121.583 93.004 121.488 92.9921C121.389 92.9802 121.325 92.9663 121.297 92.9504ZM123.56 82.0051C123.39 82.0051 123.241 81.9475 123.114 81.8324C122.991 81.7173 122.929 81.5565 122.929 81.35C122.929 81.2032 122.965 81.0741 123.036 80.963C123.108 80.8478 123.197 80.7585 123.304 80.695C123.415 80.6315 123.529 80.5997 123.644 80.5997C123.858 80.5997 124.017 80.6632 124.12 80.7903C124.223 80.9133 124.275 81.0682 124.275 81.2548C124.275 81.4811 124.201 81.6637 124.055 81.8026C123.912 81.9376 123.747 82.0051 123.56 82.0051ZM128.627 90.1754C127.698 90.1754 126.985 89.8776 126.489 89.2821C125.993 88.6826 125.745 87.8529 125.745 86.7929C125.745 86.1299 125.86 85.5424 126.09 85.0302C126.32 84.5141 126.656 84.1092 127.097 83.8154C127.537 83.5177 128.075 83.3668 128.71 83.3628C129.064 83.3549 129.383 83.4105 129.669 83.5296C129.959 83.6447 130.207 83.8134 130.414 84.0358C130.624 84.2541 130.787 84.5181 130.902 84.8278C131.021 85.1335 131.084 85.4749 131.092 85.852C131.092 86.0585 131.09 86.2451 131.086 86.4118C131.082 86.5746 131.069 86.7254 131.045 86.8644H126.328L126.412 86.2093H130.175C130.199 85.8044 130.165 85.4391 130.074 85.1136C129.987 84.7881 129.828 84.53 129.598 84.3395C129.367 84.1489 129.052 84.0536 128.651 84.0536C128.27 84.0536 127.928 84.1568 127.627 84.3633C127.325 84.5657 127.089 84.8913 126.918 85.3399C126.751 85.7885 126.678 86.3761 126.698 87.1026C126.717 87.6703 126.823 88.1249 127.013 88.4663C127.204 88.8077 127.46 89.0558 127.781 89.2106C128.103 89.3615 128.468 89.4369 128.877 89.4369C129.08 89.4369 129.296 89.4111 129.526 89.3595C129.76 89.3079 129.979 89.2444 130.181 89.169C130.388 89.0896 130.548 89.0121 130.664 88.9367L130.866 89.5679C130.723 89.687 130.529 89.7923 130.283 89.8836C130.036 89.9749 129.766 90.0463 129.473 90.0979C129.183 90.1496 128.901 90.1754 128.627 90.1754ZM132.339 86.8644C132.335 86.1974 132.452 85.5999 132.691 85.0719C132.933 84.5439 133.286 84.1271 133.751 83.8214C134.219 83.5157 134.789 83.3628 135.46 83.3628C135.853 83.3628 136.19 83.3986 136.472 83.47C136.758 83.5415 136.96 83.6169 137.079 83.6963L136.913 84.4705C136.746 84.3514 136.532 84.262 136.27 84.2025C136.007 84.1429 135.722 84.1132 135.412 84.1132C135.051 84.1132 134.711 84.2065 134.394 84.3931C134.076 84.5757 133.814 84.8575 133.608 85.2387C133.405 85.6158 133.296 86.0942 133.28 86.6738C133.264 87.2931 133.352 87.8073 133.542 88.2162C133.733 88.6251 133.987 88.9308 134.304 89.1332C134.626 89.3357 134.975 89.4369 135.352 89.4369C135.734 89.4369 136.071 89.3833 136.365 89.2762C136.659 89.169 136.877 89.0717 137.02 88.9844L137.222 89.5441C137.016 89.7347 136.732 89.8875 136.371 90.0027C136.013 90.1178 135.622 90.1754 135.198 90.1754C134.59 90.1754 134.072 90.0305 133.643 89.7406C133.219 89.4508 132.895 89.0578 132.673 88.5616C132.45 88.0613 132.339 87.4956 132.339 86.8644ZM140.534 90.1754C140.264 90.1754 140.014 90.1357 139.784 90.0563C139.553 89.9729 139.369 89.8121 139.23 89.5739C139.091 89.3357 139.021 88.9804 139.021 88.508V84.1846H138.104V83.6487C138.319 83.5891 138.527 83.5395 138.729 83.4998C138.936 83.4561 139.065 83.3668 139.117 83.2318C139.14 83.1643 139.166 83.0532 139.194 82.8983C139.226 82.7395 139.257 82.5728 139.289 82.3981C139.325 82.2195 139.363 82.0646 139.402 81.9336H139.986V83.4462H142.046V84.1846H139.986V87.9601C139.986 88.4008 140.014 88.7223 140.069 88.9248C140.125 89.1233 140.216 89.2503 140.343 89.3059C140.474 89.3615 140.649 89.3893 140.867 89.3893C141.002 89.3893 141.153 89.3734 141.32 89.3417C141.487 89.3059 141.641 89.2642 141.784 89.2166C141.931 89.165 142.042 89.1154 142.118 89.0677L142.285 89.6275C142.173 89.7188 142.019 89.8061 141.82 89.8895C141.622 89.9729 141.407 90.0404 141.177 90.092C140.951 90.1476 140.736 90.1754 140.534 90.1754Z" fill="#E6E6E6"/>
</svg>
