<svg width="1924" height="666" viewBox="0 0 1924 666" fill="none" xmlns="http://www.w3.org/2000/svg">
<path d="M0 51.9383C156.626 27.4183 146.845 13.2383 235.089 28.2383C256.634 31.8983 391.063 60.2383 466.329 61.7683C479.657 62.0383 652.416 64.9482 656.194 65.6382C700.336 72.7282 796.706 79.1783 842.01 78.7283C846.38 78.5583 850.729 78.3883 855.068 78.2383C872.444 77.6583 889.8 77.4483 906.986 78.9783C911.505 79.1383 916.004 79.4182 920.514 79.8882C927.107 80.5682 933.531 81.6984 939.864 83.0584C946.197 84.4184 952.44 85.9782 958.653 87.4082C996.051 97.2882 1034.89 100.308 1075.36 96.5384C1084.22 96.0584 1093.14 95.6083 1102.2 95.2683C1112.55 94.2583 1122.91 93.2584 1132.56 89.8284C1135.31 88.9384 1138.06 87.9884 1140.79 87.0484C1158.12 81.0784 1175.88 75.8283 1193.66 70.7283C1211.9 65.4883 1231.2 60.7284 1250.89 61.5584C1270.93 62.3984 1290.3 66.9684 1310.28 68.0984C1327 69.0484 1343.9 67.4982 1360.02 63.9182C1362.78 63.3082 1365.49 62.6282 1368.16 61.8982C1370.83 61.1682 1373.48 60.3784 1376.1 59.5784C1414.17 46.9484 1452.89 29.5384 1491.5 18.3384C1555.96 -0.361589 1563.95 -0.851696 1604.34 0.728305C1630.28 1.7483 1698.85 32.5282 1715.73 35.3982C1835.09 55.6782 1861.81 46.3184 1924 38.7784V665.668H0" fill="black"/>
</svg>
