<svg width="26" height="51" viewBox="0 0 26 51" fill="none" xmlns="http://www.w3.org/2000/svg">
<path d="M22.8296 0.359985C22.1196 0.619985 21.5996 1.17 21.0896 1.75C14.6696 8.91 8.23961 16.07 1.80961 23.23C0.909613 24.23 0.719624 25.4 1.28962 26.48C1.41962 26.73 1.59961 26.95 1.77961 27.16C8.35961 34.49 14.9396 41.82 21.5296 49.15C22.7796 50.54 24.5996 50.29 25.3096 48.62C25.6796 47.74 25.5996 46.89 25.0996 46.1C24.9596 45.88 24.7796 45.68 24.6096 45.49C18.6796 38.88 12.7396 32.27 6.7996 25.66C6.6796 25.53 6.50961 25.44 6.36961 25.33C6.36961 25.26 6.36961 25.18 6.36961 25.11C6.50961 25 6.6796 24.91 6.7996 24.78C12.7696 18.14 18.7296 11.5 24.6996 4.84998C25.6096 3.82998 25.7896 2.64006 25.1896 1.56006C24.8496 0.930059 24.2996 0.619995 23.7096 0.369995H22.8396L22.8296 0.359985Z" fill="#B3B3B3"/>
</svg>
