<svg width="59" height="67" viewBox="0 0 59 67" fill="none" xmlns="http://www.w3.org/2000/svg">
<path d="M45.1602 25.02C38.2002 17.73 29.5901 11.74 22.8801 4.26001C23.0901 4.07001 23.2701 3.82001 23.3801 3.51001C24.3401 0.950011 19.7001 -0.849985 18.7401 1.72001C17.9801 3.75001 20.7101 5.26001 22.3701 4.54001C26.4401 10.56 34.2901 16.8 39.4601 21.89C40.7001 23.11 41.9301 24.36 43.0801 25.65C43.7601 25.4 44.4502 25.19 45.1502 25.02H45.1602Z" fill="#4D4D4D"/>
<path d="M54.3301 60.52C54.6701 60.08 55.0202 59.67 55.4102 59.29C55.4302 59.27 55.4501 59.26 55.4701 59.24C55.4501 59.22 55.4402 59.2 55.4202 59.18C55.9002 58.51 56.4101 57.87 56.8301 57.13C60.1101 51.35 59.0102 44 57.5202 37.72C57.1102 36 56.1102 31.74 56.0602 31.47C55.9202 30.76 54.6702 27.91 53.6802 26.9C53.0602 25.89 50.0502 24.17 48.4902 23.65C46.3202 22.93 44.2702 22.38 42.0202 22.15C42.0202 22.1 21.0702 20.96 12.9902 23.38C7.24016 25.1 2.72021 26.68 1.29021 34.12C0.760207 36.88 0.820158 40.9 0.990158 43.72C1.07016 45.02 1.21022 47.84 1.30022 49.22C1.21022 53.53 4.26011 58.3 7.44011 60.38C8.25011 60.91 9.11011 61.31 9.94011 61.79C9.89011 61.83 9.85022 61.88 9.80022 61.93C10.3802 62.1 10.9502 62.34 11.5002 62.64C11.7002 62.75 11.8702 62.89 12.0202 63.06C12.1502 62.98 12.2802 62.9 12.4202 62.85C16.7802 64.43 21.3202 65.33 25.8802 65.83C32.4702 66.55 39.9402 66.7 46.3602 64.71C48.4702 64.05 50.6001 63.13 52.4701 61.78C52.8601 61.1 53.4801 60.62 54.3501 60.54L54.3301 60.52Z" fill="#4D4D4D"/>
<path d="M50.7601 35.66C51.1801 36.24 50.8801 37.47 50.2401 37.47C48.4001 37.47 46.5202 37.15 44.6702 37.03C42.7602 36.91 40.7602 37.17 38.9102 36.49C39.2202 36.07 39.9001 35.98 40.3201 35.94C43.2401 35.66 46.3602 35.62 49.3002 35.51C49.7202 35.5 50.4001 35.15 50.7601 35.65V35.66Z" fill="white"/>
<path d="M39.3701 39.56C40.2301 39.62 41.0901 39.62 41.9601 39.66C44.2101 39.76 46.4202 39.72 48.6802 39.66C49.1002 39.66 49.5201 39.47 49.9901 39.55C51.4201 39.77 51.1901 41.51 49.7401 41.61C47.9201 41.74 45.1101 41.45 43.2701 41.18C42.6001 41.08 39.8401 40.48 39.4601 39.93C39.3701 39.79 39.3601 39.74 39.3801 39.55L39.3701 39.56Z" fill="white"/>
<path d="M38.9202 32.43H42.0001C44.5501 32.41 47.2101 31.47 49.7001 31.23C50.2701 31.18 51.3401 31.12 51.3801 32.17C51.4401 33.65 49.2602 33.14 48.5502 33.19C45.9602 33.35 43.3701 33.74 40.7701 33.29C40.1801 33.19 39.3202 33.04 38.9102 32.44L38.9202 32.43Z" fill="white"/>
<path d="M31.02 32.27C31.51 32.63 32.46 33.28 32.91 33.75C33.05 33.9 33.27 34.53 33.39 34.64C38.91 39.94 36.21 49.98 29.41 53.22C23.32 56.12 12.0799 54.46 10.1899 47.25C10.1199 46.98 9.90001 46.1 9.92001 45.89C9.92001 45.75 10.0399 45.6 10.1899 45.63C10.6699 46.4 10.89 47.29 11.36 48.07C15.13 54.45 26.9099 54.6 31.4399 49.02C39.2199 39.42 27.35 27.54 16.27 32.06C11.52 34 11.58 36.82 9.26999 40.43C9.17999 40.57 8.94997 41.04 8.74997 41C8.51997 40.96 8.68994 40.08 8.71994 39.9C10.2099 30.4 20.29 25.81 29.01 30.69C29.91 31.19 30.33 31.72 31.04 32.25L31.02 32.27Z" fill="white"/>
<path d="M20.7 37.06C23.18 36.74 25.7201 38.65 26.3101 40.9C27.5301 45.54 21.7301 48.68 18.4201 44.88C18.1801 44.61 17.16 43.26 17.57 42.99C18.17 42.6 18.44 43.56 18.7 43.86C20.91 46.38 25.08 44.82 24.26 41.57C23.86 39.97 21.77 38.76 20.14 39.43C19.5 39.69 19.08 40.59 18.25 40.32C17.81 40 17.9401 39.61 18.0601 39.17C18.3801 38.01 19.48 37.23 20.7 37.07V37.06Z" fill="white"/>
<path d="M27.4399 35.27C27.7599 35.52 28.37 35.98 28.66 36.3C28.75 36.4 28.89 36.84 28.97 36.92C32.54 40.61 30.79 47.59 26.4 49.85C22.46 51.87 15.19 50.71 13.97 45.7C13.92 45.51 13.78 44.9 13.79 44.75C13.79 44.65 13.87 44.55 13.97 44.57C14.28 45.11 14.42 45.72 14.72 46.27C17.16 50.71 24.7799 50.82 27.6999 46.93C32.7299 40.25 25.05 31.98 17.89 35.13C14.82 36.48 14.86 38.45 13.36 40.96C13.3 41.06 13.15 41.39 13.02 41.36C12.87 41.33 12.98 40.72 13 40.6C13.97 33.99 20.48 30.79 26.12 34.19C26.7 34.54 26.97 34.91 27.43 35.27H27.4399Z" fill="white"/>
</svg>
