<svg width="26" height="51" viewBox="0 0 26 51" fill="none" xmlns="http://www.w3.org/2000/svg">
<path d="M3.20931 0.359985C3.91931 0.619985 4.4393 1.17 4.9493 1.75C11.3693 8.91 17.7993 16.07 24.2293 23.23C25.1293 24.23 25.3194 25.4 24.7494 26.48C24.6194 26.73 24.4394 26.95 24.2594 27.16C17.6794 34.49 11.0994 41.82 4.50936 49.15C3.25936 50.54 1.43933 50.29 0.729333 48.62C0.359333 47.74 0.439294 46.89 0.939294 46.1C1.07929 45.88 1.25941 45.68 1.42941 45.49C7.35941 38.88 13.2993 32.27 19.2393 25.66C19.3593 25.53 19.5294 25.44 19.6694 25.33C19.6694 25.26 19.6694 25.18 19.6694 25.11C19.5294 25 19.3593 24.91 19.2393 24.78C13.2693 18.14 7.30932 11.5 1.33932 4.84998C0.429319 3.82998 0.249328 2.64006 0.849328 1.56006C1.18933 0.930059 1.73931 0.619995 2.32931 0.369995H3.1993L3.20931 0.359985Z" fill="#B3B3B3"/>
</svg>
