<svg width="53" height="53" viewBox="0 0 53 53" fill="none" xmlns="http://www.w3.org/2000/svg">
<path d="M0.889648 19.57C0.989648 18.84 1.07965 18.11 1.19965 17.38C1.77965 13.87 3.23964 10.76 5.50964 8.03C7.99964 5.04 11.1097 2.93999 14.8297 1.76999C18.1297 0.729986 21.4896 0.569995 24.8696 1.28C27.9096 1.91 30.6497 3.19999 33.0897 5.11999C35.8397 7.28999 37.8696 9.99999 39.1796 13.24C40.4396 16.35 40.8696 19.57 40.4996 22.91C40.1696 25.91 39.2097 28.69 37.5897 31.23C36.9797 32.19 36.2596 33.09 35.6196 33.98C36.0896 34.47 36.5696 34.97 37.0396 35.46C39.0096 33.95 40.6896 34.65 42.0396 36.04C45.1496 39.25 48.3496 42.38 51.5096 45.54C51.7096 45.74 51.9097 45.95 52.0897 46.18C52.9097 47.22 53.0296 48.79 52.1896 49.81C51.1996 51.01 50.2397 52.29 48.5897 52.7H47.6796C46.9796 52.5 46.3296 52.2 45.7996 51.67C42.4296 48.29 39.0496 44.92 35.6796 41.54C35.1396 41 34.7796 40.37 34.6896 39.6C34.5596 38.6 34.8996 37.75 35.5396 37C35.0196 36.5 34.5296 36.02 34.0496 35.56C33.1996 36.17 32.3296 36.85 31.4196 37.44C27.2796 40.1 22.7396 41.04 17.8796 40.36C14.0796 39.83 10.7196 38.28 7.80963 35.77C4.49963 32.91 2.34966 29.35 1.39966 25.08C1.17966 24.1 1.05965 23.09 0.889648 22.1V19.57ZM20.8096 38.49C30.6096 38.49 38.5296 30.51 38.5596 20.74C38.5896 10.98 30.5697 2.95999 20.7797 2.95999C10.9897 2.95999 2.99965 10.95 3.01965 20.74C3.08965 30.63 10.9396 38.48 20.8096 38.49ZM48.9696 50.17C49.3896 49.8 49.7696 49.39 50.1596 48.99C50.8196 48.31 50.8196 47.8 50.1396 47.12C47.0396 44.02 43.9397 40.92 40.8397 37.82C40.5897 37.57 40.3497 37.31 40.0897 37.07C39.5297 36.56 38.9796 36.56 38.4296 37.07C37.9896 37.49 37.5596 37.92 37.1396 38.36C36.6096 38.91 36.6096 39.46 37.1296 40.01C37.5696 40.48 38.0296 40.92 38.4896 41.37C41.3796 44.26 44.2596 47.15 47.1596 50.02C47.4196 50.28 47.7696 50.45 48.1096 50.68C48.4596 50.47 48.7496 50.35 48.9796 50.15L48.9696 50.17Z" fill="#666666"/>
<path d="M9.68968 31.76C10.1797 31.27 10.6397 30.81 11.1397 30.31C8.54969 27.64 7.18969 24.42 7.19969 20.7C7.19969 17 8.55967 13.8 11.1197 11.16C10.6197 10.65 10.1497 10.17 9.68968 9.69C3.65968 15.55 3.53968 25.72 9.68968 31.75V31.76Z" fill="#666666"/>
</svg>
