<svg width="61" height="67" viewBox="0 0 61 67" fill="none" xmlns="http://www.w3.org/2000/svg">
<path d="M60.7601 15.8102C60.4501 15.4202 59.5201 15.7502 59.1501 15.8402C58.8201 15.9102 58.5002 16.0102 58.1702 16.1102C57.9902 16.0902 57.8001 16.0702 57.6301 16.0502C57.2401 16.0102 56.8401 16.0102 56.4501 16.0502C56.2401 16.0502 56.0301 16.0502 55.8201 16.0702C55.3601 15.9002 54.9301 15.8102 54.4501 15.8302C54.4101 15.8202 54.3701 15.8102 54.3201 15.8202C54.2701 15.8202 54.2202 15.8402 54.1702 15.8602C54.0602 15.8702 53.9401 15.9001 53.8201 15.9201C52.4101 16.2401 52.0401 17.63 51.8601 18.89C51.8201 19.07 51.8001 19.2501 51.7901 19.4201V19.4601C51.1801 19.7901 50.4601 19.9501 49.7301 19.9801C49.5301 19.9701 49.3402 19.9501 49.1802 19.9301C48.9702 19.9101 48.7701 19.6402 48.5701 19.5902C48.5001 19.5102 48.4001 19.2301 48.2801 19.2301H48.2201C47.9701 19.2301 47.7301 19.2303 47.4801 19.1203C46.6801 18.6303 46.0001 18.0601 45.2501 17.4501C45.2901 17.4101 45.3401 17.4501 45.4001 17.4701C45.4901 17.4001 45.5802 17.3502 45.6802 17.2802C46.3502 17.0302 47.0501 16.8202 47.5901 16.3502C48.7401 15.3602 48.5401 13.7602 48.3401 12.3402C48.3501 12.3102 48.3701 12.2701 48.3601 12.2201C48.3601 12.0401 48.4401 11.8801 48.5701 11.7301C49.2101 12.2101 50.2401 12.1903 50.9401 11.8703C51.4001 11.6603 51.7301 11.3301 52.0301 10.9301C52.2101 10.6901 52.4001 10.4701 52.5901 10.2501C53.5901 9.45014 54.3401 8.69021 54.2701 7.32021C54.2101 6.03021 53.1401 4.31024 53.8801 3.10024C54.0601 2.79024 53.7102 2.52004 53.4302 2.65004C51.2402 3.63004 48.4201 4.36013 47.3301 6.49013C47.2901 6.47013 47.2501 6.46013 47.2001 6.49013C46.8101 6.71013 46.7001 7.26005 46.6101 7.66005C46.5701 7.87005 46.5501 8.08018 46.5401 8.29018C46.2001 9.23018 46.8201 10.6802 47.4901 11.3302C47.4901 11.3502 47.4801 11.3801 47.4801 11.4101C47.4801 11.4301 47.4701 11.4401 47.4601 11.4601L47.4801 11.4901C47.4901 11.5801 47.5001 11.6802 47.5101 11.7802C47.4901 13.2602 46.9401 14.5202 45.7101 15.5402C45.0701 16.0802 44.3401 16.51 43.5901 16.89C43.5701 16.89 43.5501 16.91 43.5201 16.91C43.3801 16.96 43.2401 17.0202 43.1101 17.0802C42.9001 17.1402 42.6901 17.1901 42.4601 17.2201C42.0801 17.2701 41.7501 17.2202 41.4701 17.1002C41.1901 16.2302 40.8701 15.3602 40.7001 14.5902C40.7501 14.5302 40.7801 14.4502 40.7801 14.3502C40.7901 12.9802 41.6202 11.6802 42.0502 10.3602C42.0602 10.3302 42.0602 10.3102 42.0602 10.2802V10.2301C42.0602 9.72012 42.3201 9.21007 42.2501 8.68007C42.9201 8.62007 43.6801 7.79017 43.9501 7.28017C44.0801 7.03017 44.1502 6.77014 44.1802 6.50014C44.2002 6.44014 44.2301 6.39022 44.2401 6.33022C44.3501 5.95022 44.3101 5.62021 44.1601 5.32021C44.1101 4.62021 43.7401 3.9602 43.4601 3.3102C43.4401 2.8502 43.2901 2.41012 43.1401 1.98012C43.2301 1.81012 43.2002 1.64006 43.1802 1.42006C43.1802 1.37006 43.1501 1.3302 43.1101 1.3102C43.0901 1.1402 43.0601 0.960167 43.0101 0.780167C42.9201 0.440167 42.3501 0.490226 42.3701 0.840226C42.1401 1.16023 41.9501 1.51025 41.7701 1.86025C41.6601 1.96025 41.5601 2.05004 41.4701 2.15004C41.0301 2.66004 40.7101 3.24011 40.2201 3.72011C39.5401 4.38011 38.9901 5.17023 38.8501 6.09023C38.2601 7.47023 39.3801 8.73026 40.7901 8.62026C40.8801 9.22026 40.9601 9.81006 40.7601 10.4201C40.4801 11.2901 40.2801 12.6101 39.5201 13.2201C39.4801 13.4101 39.3902 13.5701 39.3002 13.7301C39.2902 13.7701 39.2701 13.8102 39.2501 13.8602C39.1401 13.5202 38.9601 13.2 38.7701 12.9C38.7301 11.93 39.1302 10.7602 38.1802 10.0602C37.7102 9.7202 37.1902 9.85007 36.6802 9.93007C35.7202 9.29007 34.9201 8.63017 34.3501 7.53017C34.2501 7.34017 33.9301 7.42003 33.9401 7.64003C33.9801 8.10003 34.1301 8.47002 34.3301 8.88002C34.7301 9.72002 34.4501 10.3501 34.1901 11.1701C33.9701 11.8801 34.0501 12.8 34.5301 13.39C35.5401 14.62 37.2402 14.1202 38.1702 13.0702C38.1702 13.0702 38.1702 13.0702 38.1702 13.0602C38.2602 13.1902 38.3402 13.3201 38.4202 13.4501C38.5502 13.6601 38.7702 13.9702 38.9202 14.3002C38.9202 14.3702 38.9401 14.4301 38.9401 14.5001C38.7701 14.7601 38.5801 15.0001 38.3201 15.1601H38.1901C38.1001 15.6301 38.4401 15.9701 36.6401 16.2101C36.6401 16.3101 36.3001 16.3701 36.0801 16.4401C35.9301 16.3901 35.6701 16.3302 35.6001 16.2802C35.4501 16.2902 35.0801 16.2302 34.9601 16.0802C34.9001 16.0002 34.7201 15.9303 34.6401 15.8703C34.5501 15.8203 34.4002 15.7701 34.3102 15.7201C33.7102 15.5001 32.8002 15.5702 32.3102 15.5802C31.8802 15.5802 31.4301 15.62 31.0001 15.65C30.6401 15.93 30.2901 16.2501 29.9001 16.5001C29.2501 16.9101 28.6501 17.1302 28.5701 17.8302C28.3201 18.1302 28.0901 18.4402 27.9101 18.7902C27.8501 18.9102 27.9002 19.0802 28.0401 19.1102C28.8902 19.3002 29.7501 19.2601 30.6001 19.4301C31.2001 19.5401 31.7101 19.8102 32.2701 19.8302C32.3601 19.8802 32.4501 19.9301 32.5401 19.9801C32.6601 19.9801 32.7801 19.9701 32.9101 19.9501C33.5801 19.7701 34.3002 19.2902 34.6802 19.0202C35.1102 18.7202 35.3402 18.2601 35.6702 17.9301C35.6702 17.8901 35.6801 17.8602 35.6901 17.8202C35.9601 17.7102 36.2101 17.57 36.4401 17.39C36.4401 17.39 36.4501 17.3803 36.4601 17.3703C36.5501 17.3503 36.6401 17.3402 36.7401 17.3302C37.0401 17.2002 37.3201 17.05 37.6201 16.9C37.7501 16.84 37.8801 16.7801 38.0101 16.7101C38.2301 16.5601 38.4601 16.4102 38.7001 16.2902C38.7401 16.3902 38.7601 16.4902 38.7801 16.6002C38.7801 16.6202 38.7902 16.64 38.8102 16.66C39.0402 17.21 39.2501 17.7702 39.3601 18.3402C39.6901 19.3002 39.6201 20.4002 39.2101 21.0602C38.6401 21.9602 37.0802 22.43 35.6702 23.14C35.7502 22.46 35.8201 21.7802 35.9701 21.1102C36.0701 20.7302 36.2002 20.3601 36.4202 20.0101C36.5302 19.8301 36.2701 19.6202 36.1201 19.7802C35.9601 19.9502 35.8201 20.1402 35.6901 20.3302C35.6501 20.3602 35.6101 20.4001 35.5901 20.4701C35.5901 20.4801 35.5901 20.4901 35.5801 20.5101C34.7801 21.7401 34.3702 23.1701 33.6802 24.4701C32.8902 25.1501 32.3202 25.8702 31.9302 26.5602C31.7802 26.9602 31.8901 27.5001 31.4601 27.7401C30.7901 25.4901 27.8701 25.1102 25.7901 24.3302C24.7402 23.1402 24.3701 21.3101 24.7001 19.6901C24.9301 19.4701 25.1701 19.2602 25.4001 19.0902C25.5401 18.9002 25.7001 18.7102 25.8601 18.5802C25.9101 18.4902 25.9801 18.4002 26.0801 18.3202C26.1201 18.2802 26.1601 18.2601 26.2101 18.2301C26.1701 18.2001 26.1701 18.1502 26.2101 18.1102C26.2801 17.9502 26.3502 17.8 26.4202 17.64C26.7602 16.76 26.8301 15.82 26.9901 14.9C27.2901 14.15 27.7001 13.25 27.9001 12.38C28.6501 12.2 29.4201 12.02 29.9101 11.38C30.2301 10.96 30.2201 10.39 30.1301 9.90004C30.0401 9.43004 29.8401 9.00016 29.7901 8.52016C29.7601 8.18016 29.8501 7.83012 29.8901 7.48012C29.9801 7.13012 29.8202 6.78015 29.5401 6.51015C29.3102 6.19015 28.8901 5.95012 28.5901 5.73012C28.5601 5.71012 28.5401 5.69006 28.5201 5.67006C28.4501 5.60006 28.3701 5.5301 28.2901 5.4601C28.1901 5.3501 28.0901 5.23023 28.0001 5.09023C27.9701 5.04023 27.9502 5.0001 27.9202 4.9601C27.8802 4.8301 27.8401 4.70022 27.7701 4.58022C27.7501 4.39022 27.6501 4.25006 27.5101 4.17006C27.4101 4.02006 27.3201 3.85007 27.2501 3.68007C27.1901 3.50007 26.9501 3.50007 26.8801 3.68007C26.7901 3.91007 26.7401 4.15003 26.7101 4.39003C26.6801 4.46003 26.6702 4.53026 26.6702 4.62025C26.7002 5.34025 26.1201 6.02024 25.7501 6.60024C25.3201 7.27024 24.9201 7.97017 24.8501 8.78017C24.7001 10.2602 25.3901 11.3701 26.6901 11.9701C26.7201 12.0301 26.7601 12.09 26.7801 12.15C26.3101 13.23 26.0601 14.4101 25.5901 15.5001C25.1201 16.5801 24.4201 17.4902 23.6101 18.3002C23.5001 17.2402 22.9001 16.3001 22.2501 15.4501C21.8501 14.9101 21.6602 14.29 21.5502 13.64C21.5502 13.22 21.6501 12.8303 21.9001 12.3703C22.2301 11.7603 22.6902 11.24 23.0502 10.65C23.2302 9.20004 22.9101 7.6801 21.8401 6.7101C21.1001 6.0301 20.2101 5.51018 19.5001 4.79018C19.1601 4.45018 18.8301 4.06003 18.6201 3.64003C18.6201 3.62003 18.6001 3.61023 18.6001 3.59023C18.5901 3.52023 18.5601 3.47008 18.5301 3.44008C18.5301 3.42008 18.5101 3.39026 18.5001 3.37026C18.5001 3.38026 18.4901 3.39005 18.4901 3.41005C18.3501 3.31005 18.1201 3.37024 18.1101 3.60024C18.0501 4.68024 17.4201 5.63025 16.9101 6.62025C15.9901 7.95025 15.6101 9.69011 16.6001 10.9701C16.7401 11.3301 16.9101 11.6802 17.0701 12.0402C17.1101 12.1202 17.1301 12.1902 17.1201 12.2702C17.1301 12.3102 17.1602 12.35 17.1702 12.39C17.3402 12.5 17.5102 12.6001 17.6802 12.7001C18.4002 13.1401 19.3001 13.15 19.9901 13.63C20.4901 13.97 20.4701 14.5302 20.6101 15.0502C20.7201 15.2402 20.8001 15.45 20.8801 15.64C20.8901 15.68 20.9102 15.7402 20.9302 15.8002C21.0002 15.9302 21.0601 16.0501 21.1101 16.1801C21.1301 16.1801 21.1602 16.1901 21.1802 16.1901C21.2602 16.3101 21.3501 16.4302 21.4401 16.5502L21.5502 16.66C21.6102 16.71 21.6401 16.7702 21.6601 16.8402C21.7701 16.9102 21.8301 17.03 21.8401 17.15C22.1801 17.7 22.3001 18.2903 22.3401 18.8703C22.3401 18.9003 22.1802 18.9201 22.1802 18.9501V18.9801C22.1802 19.5801 22.2501 20.1801 22.1101 20.7501C21.9701 21.3301 21.8001 21.5601 21.4001 21.7101C20.8801 21.5901 20.2801 21.6601 19.6301 21.7501C19.5701 21.6501 19.4901 21.5902 19.3301 21.6002C18.6401 21.6402 17.2401 21.2402 16.5101 20.5702C16.5301 20.5002 16.5601 20.44 16.5901 20.38C16.5401 20.24 16.5401 20.08 16.6201 19.91C16.9201 19.26 16.9201 18.1901 16.9601 17.4401C16.9901 16.9301 17.0101 16.4301 17.0001 15.9201C17.0001 15.7701 17.0001 15.6101 16.9801 15.4601C16.9501 15.4201 16.9402 15.3902 16.9302 15.3602C16.0602 14.4702 15.2201 13.4701 14.2201 12.7401C13.6001 12.2901 12.2401 12.1001 11.7801 11.4201C11.7401 11.2301 11.6801 11.0402 11.6101 10.8502C11.4601 10.4602 10.8001 10.4801 10.8301 10.9601C10.8501 11.2501 10.9201 11.5001 11.0301 11.7201C11.5801 14.2401 10.2701 17.21 11.9501 19.41C12.6301 20.31 14.4301 21.8501 15.8401 21.7201C16.3401 22.3101 17.2501 22.6702 18.1501 22.8102C18.2401 22.8602 18.3201 22.9101 18.4101 22.9601C18.8701 23.0101 19.3401 23.0302 19.8201 23.0302C19.9401 23.0302 20.0301 23.0602 20.1101 23.1002C20.5901 23.2002 21.0301 23.4302 21.3201 23.8002C22.0201 24.2002 22.6401 24.81 23.3601 25.14C23.7901 25.33 24.7601 25.6102 25.1401 26.0702C25.2201 26.1302 25.2701 26.2302 25.2801 26.3402V26.3502C25.2901 26.4102 25.2901 26.4702 25.2801 26.5202C25.2901 26.6802 25.2101 26.85 25.0101 26.91C24.2701 27.13 23.5001 27.4301 22.9101 27.9601C22.4701 28.3501 22.0701 28.8001 21.6101 29.1801C21.5201 29.2801 21.4301 29.3801 21.3401 29.4801C21.1101 29.3001 20.8701 29.1301 20.6301 28.9701C20.6301 28.9601 20.6301 28.9501 20.6301 28.9401C20.7101 27.7101 20.9901 26.2401 19.8301 25.4301C19.1901 24.9801 18.2601 25.07 17.5401 25.15C16.4802 25.27 15.7301 25.2402 15.0001 24.3502C14.8501 24.1702 14.5001 24.2701 14.4501 24.5001C14.1701 25.8901 14.7701 27.2401 15.7701 28.1801C16.4901 29.2401 17.7401 29.9401 18.8801 29.4401C19.0301 29.4401 19.1701 29.43 19.3201 29.41C19.5301 29.5301 19.7301 29.6802 19.9101 29.8002C20.0401 29.8802 20.1702 29.9702 20.3002 30.0602C20.3402 30.1002 20.3802 30.13 20.4302 30.15C20.4702 30.18 20.5102 30.2101 20.5602 30.2501C19.8002 30.9001 18.9101 31.37 17.7501 31.4C17.0301 31.41 16.1701 31.1701 15.3901 30.7101C15.3301 30.7101 15.2601 30.6901 15.1901 30.66C14.8801 30.5201 14.5401 30.4601 14.1901 30.4501C14.0801 30.3801 13.9901 30.2801 13.9001 30.1901C13.7101 29.8001 13.4701 29.4102 13.2301 29.0402C13.0801 27.7402 13.2301 26.2301 12.4101 25.2101C11.8401 24.5001 11.1401 24.5503 10.3201 24.3703C9.53006 24.2003 8.84015 23.4102 8.29015 22.8602C8.23015 22.8002 8.17009 22.7902 8.1101 22.8002C8.0501 22.7502 7.98014 22.7201 7.91014 22.6901C7.82014 22.5301 7.55012 22.5001 7.51012 22.7201C7.44012 23.1101 7.4801 23.51 7.4901 23.9C7.5001 24.66 7.24016 25.2501 6.93016 25.9201C6.57016 26.7001 6.83005 27.35 7.44005 27.9C8.71005 29.05 10.5702 29.9202 12.1802 29.0802C12.4302 29.6802 12.5301 30.4201 12.7301 31.0001C12.4401 31.1901 12.1802 31.4301 11.9302 31.6801C11.5902 32.0401 11.3301 32.3602 11.0401 32.5902C11.0201 32.5702 11.0101 32.5502 11.0001 32.5302C10.8701 32.6402 10.7101 32.7201 10.5001 32.7301C10.3601 32.7401 10.2501 32.6301 10.2001 32.5001C10.0001 32.0001 9.82005 31.5001 9.69005 30.9701C9.66005 30.8801 9.69008 30.8001 9.72008 30.7401C9.65008 30.5701 9.56016 30.4202 9.43016 30.2702C8.80016 29.5102 7.71015 29.3601 6.79015 29.4501C4.08015 29.7201 2.60006 32.3302 0.450061 33.5802C0.140061 33.7602 0.300095 34.1601 0.610095 34.2001C1.7401 34.3201 2.89008 34.7403 3.84008 35.3703C4.59008 35.8703 5.21013 36.4101 6.15013 36.4801C7.35013 36.5501 8.15015 35.6802 8.92015 34.8402C9.02015 34.5502 9.16007 34.2802 9.33007 34.0602C9.98007 34.0602 10.6601 34.0202 11.2401 33.7902C11.2401 33.9602 11.2401 34.1302 11.1901 34.2902C11.1901 34.3202 11.1901 34.3403 11.1901 34.3703C11.1901 34.4703 11.1902 34.5701 11.1702 34.6701C10.9102 35.1901 10.5801 35.7001 10.2601 36.1901C10.1301 36.2101 10.0101 36.3001 9.96007 36.4701C9.92007 36.5801 9.88008 36.6802 9.84008 36.7902C9.64008 37.1902 10.1601 37.6402 10.4801 37.2802C11.0401 36.6702 11.5701 36.0302 12.0301 35.3302C12.4601 34.6602 12.5501 33.8703 12.7801 33.1203C13.1701 31.8503 14.1901 31.5901 15.2401 31.7401C16.3401 32.3701 17.5201 32.8401 18.9101 32.9701C18.9401 33.0201 18.9701 33.0702 18.9901 33.1102C18.9701 33.2002 18.9501 33.3 18.9101 33.38C18.6301 33.92 18.2301 34.46 17.7501 34.89C17.5201 35.08 17.2601 35.2601 17.0001 35.4201C16.8601 35.5001 16.7101 35.5603 16.5701 35.6203C16.4101 35.7203 16.2402 35.81 16.0502 35.88C16.0502 35.88 16.0601 35.89 16.0701 35.9C15.9701 35.93 15.8601 35.9702 15.7601 36.0202C15.2301 36.5302 14.5902 36.9802 13.9202 37.3002C13.8802 37.3402 13.8201 37.3801 13.7701 37.41C13.4201 37.66 13.0401 37.7903 12.6401 37.8703C11.9401 37.6503 11.1601 37.5002 10.4901 37.8002C10.1001 37.9702 9.82009 38.2502 9.60009 38.5702C9.23009 38.8002 8.91015 39.1202 8.67015 39.5502C8.14015 40.5102 8.17009 41.7802 8.23009 42.8402C8.30009 44.1702 8.60014 45.4802 8.91014 46.7702C8.99014 47.1002 9.47012 47.1603 9.64012 46.8703C9.73012 46.7103 9.83016 46.55 9.93016 46.39C9.98016 46.37 10.0301 46.3302 10.0701 46.2702C11.9001 44.0602 16.0501 43.1101 14.9801 39.5101V39.4501C14.6901 39.2601 14.4802 38.99 14.4302 38.65C15.6102 37.89 16.8401 37.2002 17.9601 36.3402C18.7201 35.7602 19.5801 35.0601 20.0701 34.1901C20.0701 34.1801 20.0801 34.17 20.1001 34.16C20.2001 33.9701 20.2801 33.7702 20.3501 33.5702C20.8101 32.7102 21.5701 31.8101 22.5101 31.0101C22.5301 30.9101 22.5902 30.8201 22.6802 30.7301C23.7002 29.8201 25.1901 28.7102 26.6201 28.7902C27.3401 28.8302 27.9101 29.3602 28.0201 30.0702C28.1101 30.6902 27.8701 31.2901 27.4701 31.7601C27.2901 32.0501 26.9501 32.2801 26.5401 32.4601C26.5201 32.4801 26.5001 32.5002 26.4901 32.5202C26.4601 32.5302 26.4301 32.5402 26.4001 32.5602C26.3801 32.5602 26.3501 32.5602 26.3201 32.5602C26.0801 32.6202 25.8401 32.6501 25.6001 32.6801C25.3001 32.7301 25.0001 32.7501 24.7001 32.7601C24.0901 32.8101 23.5001 32.87 22.9501 33.14C22.8901 33.16 22.8301 33.1801 22.7701 33.2101C22.4601 33.3501 22.2501 33.5402 22.0701 33.7802C21.1201 34.7202 20.4401 35.94 19.5101 36.91C19.3601 36.98 19.2102 37.0801 19.0602 37.2401C18.8802 37.4401 18.9801 37.7002 19.2101 37.8002C19.2301 37.8002 19.2501 37.8102 19.2701 37.8202C19.3401 37.8902 19.4501 37.9401 19.5801 37.9201C19.7701 37.8801 19.9601 37.8702 20.1601 37.8602C20.2001 37.8802 20.2502 37.9 20.3102 37.89C20.4202 37.89 20.5401 37.88 20.6501 37.88C20.8001 37.88 20.9501 37.89 21.1001 37.89C21.1401 37.89 21.1701 37.8903 21.2101 37.8703C22.3401 37.8903 23.4602 38.0001 24.5602 37.7201C24.6402 37.7001 24.7001 37.6502 24.7401 37.6002C25.0801 37.5302 25.4001 37.4101 25.6901 37.2001C26.8601 36.3701 26.8202 34.58 27.4202 33.39C27.4302 33.33 27.5801 33.2801 27.5801 33.2201C27.5801 32.3801 29.2801 31.3102 30.1901 32.0602C30.7301 32.5002 30.8102 33.3301 30.9302 33.9701C31.0302 34.4801 31.0801 34.9901 31.0801 35.5001C31.2101 35.9501 31.2501 36.42 31.2401 36.91C31.2301 37.53 31.0901 38.1501 30.9001 38.7601C30.6601 39.1601 30.3901 39.5601 30.1301 39.9401C29.6501 40.6601 29.0201 41.2901 28.3901 41.9201C26.5901 43.0401 24.9602 44.4501 24.1702 46.4701C23.7602 47.5101 23.7601 48.4502 23.9901 49.3502C23.9801 49.4302 23.9901 49.5303 23.9901 49.6203V50.0101C23.9901 50.9801 24.6201 51.9303 24.9701 52.8703C25.0401 52.9903 25.1201 53.1101 25.2101 53.2201C25.4401 53.7501 25.7001 54.2802 25.9701 54.8002C26.6301 56.6202 27.0801 58.4901 26.7101 60.4701C26.3701 62.2801 25.7801 64.0202 24.7201 65.5302C24.5801 65.7302 24.4201 66.1002 24.2701 66.1002H37.2001C37.9701 63.4702 37.3101 60.1501 36.4001 57.7001C35.4701 55.1801 33.9801 53.6701 32.2601 52.0101C31.9901 51.7101 31.7101 51.4102 31.4601 51.0702C30.6701 49.9802 29.9301 48.78 29.8501 47.41C29.7101 44.94 31.6801 42.7001 32.8601 40.7101C32.9601 40.5401 33.0001 40.3901 33.0101 40.2301C33.1501 39.9801 33.2902 39.7401 33.4202 39.5101C34.0802 38.3901 34.8501 37.1501 36.1501 36.7301C36.6201 36.5801 37.1001 36.5402 37.5901 36.5602C37.9501 36.5102 38.3301 36.5202 38.7001 36.5602C38.7401 36.5402 38.7801 36.5201 38.8201 36.5101C40.0101 37.1301 41.0601 38.0101 41.9701 39.0101C41.9701 39.1301 42.0402 39.2302 42.1802 39.3002C42.2102 39.3202 42.2501 39.3402 42.2801 39.3602C42.5901 39.7202 42.8901 40.0901 43.1601 40.4801C43.1601 40.5401 43.1702 40.6101 43.1702 40.6701C42.2602 41.7701 42.3202 43.8601 43.3002 44.9301C43.3502 45.0401 43.4001 45.1501 43.4501 45.2601C44.2001 46.7701 45.8901 47.5002 46.8801 48.8202C47.1301 49.1502 47.6801 48.8601 47.4501 48.4901C46.9101 47.6201 47.2701 46.3401 47.4501 45.4201C47.6601 44.3901 47.7301 43.42 47.4801 42.4C47.3201 41.76 46.9901 41.2402 46.4601 40.8502C45.7301 40.3002 44.7401 40.35 43.9601 39.9C43.9301 39.88 43.9101 39.8702 43.8901 39.8602C43.7201 39.6102 43.5202 39.36 43.3102 39.14C43.2402 39.01 43.1701 38.8802 43.0801 38.7702C42.9101 38.2502 42.6901 37.7402 42.3301 37.3002C41.9801 36.8702 41.5401 36.5401 41.0901 36.2201C41.0101 36.1601 40.9001 36.0902 40.7801 36.0202C40.8101 35.9802 40.8301 35.94 40.8501 35.9C41.2301 35.89 41.6201 35.8803 42.0101 35.8703C42.0601 35.8703 42.1101 35.8703 42.1501 35.8703C42.4701 35.8903 42.7801 35.9201 43.0901 35.9501C44.3401 36.0601 45.6001 36.1502 46.8401 36.3302C47.3501 36.4602 47.8601 36.5502 48.3701 36.6002C49.0301 36.7502 49.6801 36.9401 50.3201 37.1801C50.6501 37.3801 50.9701 37.6002 51.2501 37.8602C50.8401 38.3102 50.5101 38.96 50.3601 39.39C49.9501 40.6 50.4901 41.81 50.9901 42.89C51.4901 43.98 52.1802 44.5801 53.3002 44.9901C53.9202 45.2201 54.5101 45.5201 55.1301 45.7601C55.7601 46.0101 56.4202 46.12 57.0401 46.38C57.2501 46.46 57.4201 46.1902 57.3201 46.0202C57.0701 45.6102 56.8002 45.3602 56.9202 44.7702C56.9902 44.4302 57.1302 44.1302 57.1802 43.7802C57.2602 43.2002 57.3501 42.6302 57.4701 42.0502C57.6501 41.1702 57.5701 39.8802 57.2101 39.0502C56.8601 38.2402 56.1501 37.8801 55.3201 37.7301C54.9001 37.6501 54.4802 37.6402 54.0602 37.6102C53.6802 37.5902 53.3401 37.4901 52.9901 37.4601C52.7201 37.3101 52.4601 37.1601 52.2401 36.9501C52.2101 36.9201 52.1701 36.9101 52.1301 36.9201C52.1301 36.9201 52.1301 36.91 52.1201 36.91C51.9301 36.84 51.8301 36.6301 51.8301 36.4201C51.8301 36.3901 51.8202 36.3702 51.8102 36.3402C51.8202 36.3402 51.8301 36.3402 51.8501 36.3302C51.8801 36.1902 51.9801 36.0501 52.1601 35.9901C53.0901 35.6601 54.1801 35.8202 55.1401 36.0402C55.5201 35.9602 55.9001 35.8002 56.2301 35.6102C57.0401 35.1502 57.5601 34.1701 57.8701 33.1801C58.4501 32.3801 58.8901 31.4801 59.4801 30.6901C59.1501 30.5101 58.5401 30.56 58.0301 30.64C57.5501 30.66 57.0701 30.7403 56.6001 30.8703C56.0201 30.9103 55.4001 30.9002 54.8401 31.0202C54.6501 31.1302 54.4702 31.26 54.3002 31.39C53.0702 31.44 52.0102 32.3901 52.0502 33.6901C51.9902 34.0601 52.0101 34.4402 52.0801 34.8102L52.0101 35.0202C51.5101 35.4002 50.9501 35.6702 50.2801 35.8302C50.0901 35.8702 49.9001 35.89 49.7001 35.9C49.0801 35.76 48.4601 35.5302 47.8401 35.3502C47.1901 35.1502 46.5301 35.01 45.8501 34.9C45.4301 34.83 44.9802 34.69 44.5502 34.63C44.5502 34.63 44.5401 34.63 44.5301 34.63C45.1501 33.76 45.5301 32.6002 46.2101 31.8102C46.2301 31.7602 46.8101 31.7 46.8201 31.65C46.8201 31.63 47.4001 31.6102 47.4001 31.6002V31.5702C47.4001 31.3602 47.3001 31.1702 47.7001 31.0802C47.8201 31.0502 47.6601 31.0502 47.7901 31.0602C48.0302 31.3302 48.1102 31.6302 48.4302 31.8202C48.8402 32.0602 49.3001 31.9602 49.7101 31.8202C50.0001 31.7302 50.2401 31.59 50.5101 31.4C51.6001 31.13 52.4001 30.4401 53.4501 30.0001C53.5601 29.9501 53.5601 29.7901 53.4501 29.7401C51.8301 29.0301 50.1202 27.11 48.1702 27.65C47.4402 27.85 46.8501 28.6502 46.6501 29.3502C46.5901 29.5602 46.5301 29.7501 46.4601 29.9401C46.3601 30.5001 45.8001 30.8301 45.3601 31.2101C45.3301 31.2401 45.2901 31.2501 45.2601 31.2501C45.0801 31.4701 44.9001 31.6901 44.7301 31.91C44.7301 31.91 44.7301 31.91 44.7201 31.9C44.6001 31.53 44.4401 31.1902 44.2801 30.8402C44.2801 30.8302 44.2801 30.8102 44.2801 30.8002C44.2201 30.7302 44.1701 30.6502 44.1201 30.5602C44.0301 30.4302 44.0201 30.2202 44.1201 30.0902C44.4001 29.6702 44.4601 29.2302 44.4701 28.7702C44.4501 28.7102 44.4201 28.6602 44.4001 28.6102C44.2501 28.3102 44.1601 28.1201 43.8801 27.9401C43.7801 27.8801 43.8002 27.8101 43.8002 27.7401C43.8002 27.6101 43.4401 27.5 43.3301 27.4C43.1201 27.2 42.6301 27.0702 42.2301 27.0202C42.1601 27.0002 42.0401 26.9901 41.9701 26.9801C41.6901 26.8801 41.3601 26.8202 41.0201 26.8202C40.7001 26.8202 40.3502 26.8301 40.0401 26.9201C39.5901 26.9601 39.1001 27.0802 38.7601 27.3602C38.7301 27.3802 38.7101 27.4401 38.7401 27.4701C38.8901 27.6301 39.0701 27.7601 39.2101 27.9201C39.2301 28.0001 39.2602 28.09 39.2901 28.16C39.3702 28.3601 39.4801 28.5401 39.6101 28.7101C40.3201 30.2201 41.7901 31.9601 43.2701 30.9401C43.3001 30.9401 43.3401 30.9501 43.3701 30.9501C43.5601 31.3201 43.7101 31.7102 43.7801 32.0902C43.8001 32.6302 43.7201 33.1502 43.3701 33.6102C43.3501 33.6402 43.3301 33.6701 43.3201 33.7001C43.2101 33.7801 43.0901 33.8601 42.9701 33.9301C42.9501 33.9301 42.9201 33.9201 42.8901 33.9201C40.7001 33.8501 38.5002 33.3902 36.3102 33.5702C35.5802 33.6302 34.7101 33.8402 33.9101 33.8002C33.7901 32.8502 33.3601 31.9401 33.3601 30.9801C33.3601 30.5801 33.3801 30.1501 33.4501 29.7301C33.4701 29.2101 33.5801 28.6902 33.8701 28.3002C34.0301 27.9902 34.2201 27.7502 34.4401 27.5702C35.8301 25.5702 40.1101 24.8 41.3201 22.64C41.6901 21.99 41.6902 21.2801 41.8002 20.7201C42.0502 20.4601 42.3201 20.2202 42.6301 20.0202C43.4301 19.4902 44.4801 19.4601 45.4401 19.7101C45.8201 19.9601 46.1901 20.24 46.6001 20.4C47.7301 20.86 49.0901 21.0801 50.3601 20.9201C50.3601 21.0101 50.3901 21.1001 50.4701 21.1901C50.7101 21.4401 50.8801 21.7302 51.0201 22.0502C50.8801 22.0902 50.7201 22.1301 50.5801 22.1901C50.5801 22.2101 50.5801 22.2301 50.5801 22.2501C50.5301 22.2801 50.4801 22.3202 50.4401 22.3602C50.1801 22.6002 50.0402 22.8601 49.9302 23.1801C49.6802 23.9201 50.1202 24.7102 50.5401 25.2802C51.0802 26.0202 51.6101 26.54 52.4701 26.89C53.6301 27.37 54.7001 27.7901 55.7301 28.5101C55.9401 28.6601 56.1801 28.3801 56.0701 28.1801C55.5301 27.2101 56.0401 26.41 56.1201 25.41C56.1701 24.67 56.1002 23.7502 55.7901 23.0702C55.2901 21.9702 53.9701 22.0501 52.9801 21.7101C52.5101 21.7101 52.1501 21.4201 51.7501 21.1701C51.6101 21.0801 51.6801 21.0001 51.8301 21.0001H51.8901C51.8901 21.0001 51.8401 20.8502 51.8201 20.8402C52.0001 20.8102 52.1701 20.7101 52.3401 20.6701C52.5101 20.7101 52.6901 20.7101 52.8501 20.7401C53.2201 20.8501 53.6001 20.9201 53.9801 20.9601C54.9601 21.2601 55.8901 21.2002 56.8801 20.5902C57.5601 20.1702 58.1501 19.5402 58.4801 18.8002C58.5201 18.7602 58.5601 18.71 58.6001 18.66C58.7501 18.49 58.8701 18.2802 58.9701 18.0802C59.2301 17.8702 59.4801 17.6601 59.7201 17.4201C60.0301 17.1201 60.5801 16.6202 60.6501 16.1102C60.7401 16.0402 60.8001 15.8902 60.7001 15.7702" fill="black"/>
</svg>
